<svg width="32" height="32" viewBox="0 0 32 32" fill="none" xmlns="http://www.w3.org/2000/svg">
<path d="M26.7584 28.7965L27.2231 28.487C28.8022 27.4351 29.7498 25.6633 29.7498 23.7658V23.1072C29.7498 22.24 29.1808 21.4748 28.3499 21.2255L22.9439 19.6033C22.5982 19.4991 22.223 19.5943 21.9668 19.8493L20.3923 21.4238C19.4571 22.359 17.9393 22.359 17.0041 21.4238L10.0781 14.4978C9.14287 13.5626 9.14287 12.0448 10.0781 11.1096L11.6526 9.53508C11.9076 9.28003 12.0028 8.90482 11.8985 8.55795L10.2764 3.15202C10.027 2.32112 9.26189 1.75208 8.39472 1.75208H7.42666C5.70252 1.75208 4.07247 2.53536 2.99559 3.88203C2.19076 4.88863 1.75208 6.13781 1.75208 7.42666V7.89142C1.75208 12.4529 3.5635 16.8273 6.7896 20.0522L11.4519 24.7145C14.6769 27.9395 19.0513 29.7521 23.6127 29.7521C24.7327 29.7521 25.8277 29.4199 26.7606 28.7988L26.7584 28.7965Z" stroke="#FFAA1D" stroke-width="3.5" stroke-linecap="round" stroke-linejoin="round"/>
</svg>
