<svg width="33" height="33" viewBox="0 0 33 33" fill="none" xmlns="http://www.w3.org/2000/svg">
<path d="M27.3695 14.1425C27.3695 20.6569 21.6526 25.9373 14.6011 25.9373C13.9178 25.9373 13.2475 25.8877 12.5927 25.7921C12.307 25.7498 12.0237 25.699 11.7439 25.6397L3.38047 28.2963L6.88894 23.5433C3.81739 21.3887 1.83398 17.9797 1.83398 14.1425C1.83398 7.62811 7.55087 2.34766 14.6023 2.34766C21.6538 2.34766 27.1147 7.39463 27.3623 13.7082C27.3683 13.8522 27.3707 13.9973 27.3707 14.1425H27.3695Z" stroke="#FFAA1D" stroke-width="3.2" stroke-linecap="round" stroke-linejoin="round"/>
<path d="M28.6793 26.1031L31.2378 30.6541L23.7029 28.7403C22.7791 28.9629 21.8017 29.0814 20.7909 29.0814C17.4658 29.0814 14.5038 27.7955 12.5918 25.791C13.2466 25.8866 13.9168 25.9362 14.6002 25.9362C21.6517 25.9362 27.3686 20.6557 27.3686 14.1413C27.3686 13.9962 27.3662 13.851 27.3602 13.707C29.7258 15.2918 31.2378 17.7149 31.2378 20.4319C31.2378 22.6009 30.2734 24.5849 28.6793 26.1031Z" stroke="#FFAA1D" stroke-width="3.2" stroke-linecap="round" stroke-linejoin="round"/>
<path d="M8.41096 15.7136C9.26572 15.7136 9.95864 15.0096 9.95864 14.141C9.95864 13.2725 9.26572 12.5684 8.41096 12.5684C7.5562 12.5684 6.86328 13.2725 6.86328 14.141C6.86328 15.0096 7.5562 15.7136 8.41096 15.7136Z" fill="#FFAA1D" stroke="#FFAA1D" stroke-width="2" stroke-linecap="round" stroke-linejoin="round"/>
<path d="M14.6024 15.7136C15.4571 15.7136 16.15 15.0096 16.15 14.141C16.15 13.2725 15.4571 12.5684 14.6024 12.5684C13.7476 12.5684 13.0547 13.2725 13.0547 14.141C13.0547 15.0096 13.7476 15.7136 14.6024 15.7136Z" fill="#FFAA1D" stroke="#FFAA1D" stroke-width="2" stroke-linecap="round" stroke-linejoin="round"/>
<path d="M20.7918 15.7136C21.6466 15.7136 22.3395 15.0096 22.3395 14.141C22.3395 13.2725 21.6466 12.5684 20.7918 12.5684C19.9371 12.5684 19.2441 13.2725 19.2441 14.141C19.2441 15.0096 19.9371 15.7136 20.7918 15.7136Z" fill="#FFAA1D" stroke="#FFAA1D" stroke-width="2" stroke-linecap="round" stroke-linejoin="round"/>
</svg>
