<?xml version="1.0" encoding="utf-8"?>
<!-- Generator: Adobe Illustrator 27.2.0, SVG Export Plug-In . SVG Version: 6.00 Build 0)  -->
<svg version="1.1" id="Layer_1" xmlns="http://www.w3.org/2000/svg" xmlns:xlink="http://www.w3.org/1999/xlink" x="0px" y="0px"
	 viewBox="0 0 16 16" style="enable-background:new 0 0 16 16;" xml:space="preserve">
<style type="text/css">
	.st0{fill:url(#SVGID_1_);}
</style>
<g>
	<g>
		<g>
			<g>
				<linearGradient id="SVGID_1_" gradientUnits="userSpaceOnUse" x1="30.7701" y1="8" x2="2.3859" y2="8">
					<stop  offset="0" style="stop-color:#FFEBA9"/>
					<stop  offset="0.5" style="stop-color:#FECC00"/>
					<stop  offset="1" style="stop-color:#F8AE00"/>
				</linearGradient>
				<path class="st0" d="M14.6,15.8c-0.2,0.1-0.4,0.1-0.5,0.1c-0.4,0-0.8-0.2-1-0.6l-2.3-4c0-0.1-0.1-0.2-0.1-0.2
					c-0.3,0.1-0.7,0.1-1,0.1H3.4l0,3.6c0,0.6-0.5,1.1-1.1,1.1c-0.2,0-0.4-0.1-0.5-0.1c-0.3-0.2-0.6-0.6-0.6-1l0-4c0,0,0,0,0-0.1v0
					c0-0.1,0-0.2,0-0.3C1.2,10,1.5,9.6,2,9.6h6.7c2.2,0,4-1.8,4-4s-1.8-4-4-4H1.6c-0.4,0-0.8-0.3-0.8-0.8c0-0.4,0.3-0.8,0.8-0.8h8.1
					c3,0,5.5,2.5,5.5,5.5c0,1.9-1,3.6-2.4,4.6l2.3,4C15.3,14.8,15.2,15.4,14.6,15.8z"/>
			</g>
		</g>
	</g>
</g>
</svg>
