<svg width="36" height="27" viewBox="0 0 36 27" fill="none" xmlns="http://www.w3.org/2000/svg">
<g clip-path="url(#clip0_1_1294)">
<path d="M0 4.16322C0 2.14008 1.64008 0.5 3.66322 0.5H32.3368C34.3599 0.5 36 2.14008 36 4.16322V22.8368C36 24.8599 34.3599 26.5 32.3368 26.5H3.66322C1.64008 26.5 0 24.8599 0 22.8368V4.16322Z" fill="white"/>
<g clip-path="url(#clip1_1_1294)">
<path d="M39 0.546751V24.4537C39 28.3078 35.9285 31.4393 32.1172 31.5H4.88278C1.07146 31.4393 -2 28.3078 -2 24.4537V0.546751C-2 -3.31493 1.08386 -6.45094 4.9058 -6.5H32.0946C35.9166 -6.45094 39 -3.31493 39 0.546751Z" fill="white"/>
<path d="M27.7089 5.96583C27.1399 6.30377 27.2536 6.82718 26.8314 7.13124C26.4088 7.4353 26.0919 7.26633 25.7098 7.58733L25.6944 7.60016C25.0192 8.16661 24.9002 9.18778 25.4251 9.90534L26.7058 11.6564C26.8213 11.8144 26.7702 12.0429 26.5992 12.1318C26.5212 12.1721 26.4304 12.1757 26.3493 12.1423C25.7041 11.873 25.2867 11.9779 25.2867 11.9779C25.1655 12.097 25.039 12.1753 24.9319 12.2261C24.7957 12.2911 24.6357 12.276 24.515 12.1844C24.2743 12.0022 23.7851 11.7206 23.2876 11.961C22.827 12.1835 22.6027 12.652 22.4797 13.0563C22.258 13.7849 21.7653 14.3902 21.0976 14.7108C19.9473 15.263 18.3462 15.7265 16.9491 15.7265C16.0319 15.7265 15.8323 16.5553 15.8001 17.0549C15.7838 17.3063 15.5802 17.5 15.3378 17.5C15.1567 17.5 14.9914 17.391 14.9165 17.2193C14.734 16.8021 14.3585 16.0621 13.9747 16.0136C13.4383 15.9458 13.0646 16.4019 12.2845 16.4019C11.5044 16.4019 9.60269 15.3885 9.34266 14.9329C9.08263 14.4768 9.30608 14.4937 9.02843 13.9364C8.83803 13.5545 8.65998 13.6099 8.48678 12.2591C8.43786 11.8767 8.17695 11.182 8.02402 10.7983C7.96188 10.6421 8.02402 10.4636 8.16769 10.3843C8.31357 10.3037 8.49559 10.3532 8.58241 10.4993C8.76972 10.8148 9.1342 11.2883 9.60269 11.2123C10.2959 11.0996 11.0981 9.21937 12.084 9.23082C13.0699 9.24227 13.2757 9.91771 14.0994 9.91771C14.8539 9.91771 15.0624 8.07548 14.9588 7.12575C14.9429 6.9783 15.013 6.83542 15.1373 6.7617C15.2356 6.70354 15.3537 6.69713 15.4577 6.74338C15.8416 6.91373 16.9949 7.30022 19.5657 7.30022C22.8649 7.30022 22.6556 6.81207 24.1977 6.3546C26.2109 5.75701 26.7746 5.27757 27.2435 4.85124C27.5661 4.55771 27.9306 4.31822 28.3233 4.14009L31.9279 2.50484C31.9813 2.48057 32.0262 2.55338 31.9821 2.59368L29.2933 5.06189C29.2007 5.1466 29.0989 5.21941 28.9892 5.27803L27.7076 5.96628L27.7089 5.96583Z" fill="#FCAD2E"/>
<path d="M12 19.5C10.3073 19.1354 10 17.5 10 17.5C10 17.5 11.7052 17.5873 12 19.5Z" fill="#589488"/>
<path d="M12.7811 19.5C11.5523 18.5156 12.1409 17.5 12.1409 17.5C12.1409 17.5 13.5231 18.3432 12.7811 19.5Z" fill="#589488"/>
<path d="M13.7812 20.5C12.5525 19.5159 13.1407 18.5 13.1407 18.5C13.1407 18.5 14.523 19.3433 13.7812 20.5Z" fill="#589488"/>
<path d="M14.7812 20.5C13.5525 19.5159 14.1407 18.5 14.1407 18.5C14.1407 18.5 15.523 19.3433 14.7812 20.5Z" fill="#589488"/>
<path d="M16.918 21.5C15.7245 20.6297 16.0369 19.5 16.0369 19.5C16.0369 19.5 17.3332 20.204 16.918 21.5Z" fill="#589488"/>
<path d="M17 22.5264C17 22.5264 16.3235 23.7977 15 23.4348C15.8473 22.2578 17 22.5264 17 22.5264Z" fill="#589488"/>
<path d="M16 21.6226C16 21.6226 15.1743 22.9999 14 22.3032C14.9701 21.0724 16 21.6226 16 21.6226Z" fill="#589488"/>
<path d="M15 21.6226C15 21.6226 14.1743 22.9999 13 22.3032C13.9701 21.0724 15 21.6226 15 21.6226Z" fill="#589488"/>
<path d="M13 20.2723C13 20.2723 11.7899 21.0788 11 19.6559C12.286 19.0833 13 20.2723 13 20.2723Z" fill="#589488"/>
<path d="M14 20.9306C14 20.9306 12.974 22.1846 12 20.9707C13.1347 19.9355 14 20.9306 14 20.9306Z" fill="#589488"/>
<path d="M15.8562 21.5C14.6314 20.5698 15.0803 19.5 15.0803 19.5C15.0803 19.5 16.4349 20.2786 15.8562 21.5Z" fill="#589488"/>
<path d="M25 19.5C26.6927 19.1354 27 17.5 27 17.5C27 17.5 25.2948 17.5873 25 19.5Z" fill="#589488"/>
<path d="M24.2189 19.5C25.4477 18.5156 24.8591 17.5 24.8591 17.5C24.8591 17.5 23.4769 18.3432 24.2189 19.5Z" fill="#589488"/>
<path d="M23.2188 20.5C24.4475 19.5159 23.8593 18.5 23.8593 18.5C23.8593 18.5 22.477 19.3433 23.2188 20.5Z" fill="#589488"/>
<path d="M22.2188 20.5C23.4475 19.5159 22.8593 18.5 22.8593 18.5C22.8593 18.5 21.477 19.3433 22.2188 20.5Z" fill="#589488"/>
<path d="M20.082 21.5C21.2755 20.6297 20.9631 19.5 20.9631 19.5C20.9631 19.5 19.6668 20.204 20.082 21.5Z" fill="#589488"/>
<path d="M20 22.5264C20 22.5264 20.6765 23.7977 22 23.4348C21.1527 22.2578 20 22.5264 20 22.5264Z" fill="#589488"/>
<path d="M21 21.6226C21 21.6226 21.8257 22.9999 23 22.3032C22.0299 21.0724 21 21.6226 21 21.6226Z" fill="#589488"/>
<path d="M22 21.6226C22 21.6226 22.8257 22.9999 24 22.3032C23.0299 21.0724 22 21.6226 22 21.6226Z" fill="#589488"/>
<path d="M25 20.2723C25 20.2723 26.2101 21.0788 27 19.6559C25.714 19.0833 25 20.2723 25 20.2723Z" fill="#589488"/>
<path d="M24 20.9306C24 20.9306 25.026 22.1846 26 20.9707C24.8653 19.9355 24 20.9306 24 20.9306Z" fill="#589488"/>
<path d="M21.1438 21.5C22.3686 20.5698 21.9197 19.5 21.9197 19.5C21.9197 19.5 20.5651 20.2786 21.1438 21.5Z" fill="#589488"/>
<path d="M17 22.5L20 23.5C20 23.5 18.607 22.6694 17 22.5Z" fill="#589488"/>
<path d="M20 22.5L17 23.5C17 23.5 18.393 22.6694 20 22.5Z" fill="#589488"/>
</g>
</g>
<path d="M0.370931 4.16322C0.370931 2.34494 1.84494 0.870931 3.66322 0.870931H32.3368C34.1551 0.870931 35.6291 2.34494 35.6291 4.16322V22.8368C35.6291 24.6551 34.1551 26.1291 32.3368 26.1291H3.66322C1.84494 26.1291 0.370931 24.6551 0.370931 22.8368V4.16322Z" stroke="#FFAA1D" stroke-width="0.741863"/>
<defs>
<clipPath id="clip0_1_1294">
<path d="M0 4.16322C0 2.14008 1.64008 0.5 3.66322 0.5H32.3368C34.3599 0.5 36 2.14008 36 4.16322V22.8368C36 24.8599 34.3599 26.5 32.3368 26.5H3.66322C1.64008 26.5 0 24.8599 0 22.8368V4.16322Z" fill="white"/>
</clipPath>
<clipPath id="clip1_1_1294">
<rect width="41" height="38" fill="white" transform="translate(-2 -6.5)"/>
</clipPath>
</defs>
</svg>
