<svg width="37" height="27" viewBox="0 0 37 27" fill="none" xmlns="http://www.w3.org/2000/svg">
<g clip-path="url(#clip0_1_1469)">
<path d="M0.729492 4.16322C0.729492 2.14008 2.36957 0.5 4.39272 0.5H33.0663C35.0894 0.5 36.7295 2.14008 36.7295 4.16322V22.8368C36.7295 24.8599 35.0894 26.5 33.0663 26.5H4.39272C2.36957 26.5 0.729492 24.8599 0.729492 22.8368V4.16322Z" fill="white"/>
<g clip-path="url(#clip1_1_1469)">
<path d="M0.729492 0.5H36.7295V27.5H0.729492V0.5Z" fill="white"/>
<path d="M0.729492 0.5H12.7295V27.5H0.729492V0.5Z" fill="#000091"/>
<path d="M24.7295 0.5H36.7295V27.5H24.7295V0.5Z" fill="#E1000F"/>
</g>
</g>
<path d="M1.10042 4.16322C1.10042 2.34494 2.57443 0.870931 4.39272 0.870931H33.0663C34.8845 0.870931 36.3586 2.34494 36.3586 4.16322V22.8368C36.3586 24.6551 34.8846 26.1291 33.0663 26.1291H4.39272C2.57443 26.1291 1.10042 24.6551 1.10042 22.8368V4.16322Z" stroke="#FFAA1D" stroke-width="0.741863"/>
<defs>
<clipPath id="clip0_1_1469">
<path d="M0.729492 4.16322C0.729492 2.14008 2.36957 0.5 4.39272 0.5H33.0663C35.0894 0.5 36.7295 2.14008 36.7295 4.16322V22.8368C36.7295 24.8599 35.0894 26.5 33.0663 26.5H4.39272C2.36957 26.5 0.729492 24.8599 0.729492 22.8368V4.16322Z" fill="white"/>
</clipPath>
<clipPath id="clip1_1_1469">
<rect width="36" height="27" fill="white" transform="translate(0.729492 0.5)"/>
</clipPath>
</defs>
</svg>
