<svg width="37" height="27" viewBox="0 0 37 27" fill="none" xmlns="http://www.w3.org/2000/svg">
<g clip-path="url(#clip0_1_1326)">
<path d="M0.864746 4.16322C0.864746 2.14008 2.50483 0.5 4.52797 0.5H33.2015C35.2247 0.5 36.8647 2.14008 36.8647 4.16322V22.8368C36.8647 24.8599 35.2247 26.5 33.2015 26.5H4.52797C2.50483 26.5 0.864746 24.8599 0.864746 22.8368V4.16322Z" fill="white"/>
<g clip-path="url(#clip1_1_1326)">
<path d="M14.8647 0.5H36.8647V28.5H14.8647V0.5Z" fill="#FF0000"/>
<path d="M0.864746 0.5H14.8647V28.5H0.864746V0.5Z" fill="#006600"/>
<path fill-rule="evenodd" clip-rule="evenodd" d="M20.4159 18.5C18.533 18.4424 9.92304 13.1305 9.86475 12.2778L10.3369 11.5C11.1938 12.7272 19.9962 17.8951 20.8647 17.7107L20.4159 18.5Z" fill="#FFFF00" stroke="black" stroke-width="0.075" stroke-linecap="round" stroke-linejoin="round"/>
<path fill-rule="evenodd" clip-rule="evenodd" d="M9.31033 11.6572C9.14568 12.1478 11.5018 13.7578 14.3292 15.6697C17.1623 17.5753 19.6036 18.7513 19.7796 18.5878L19.8647 18.4117C19.8307 18.4746 19.7512 18.4935 19.6206 18.4494C18.8542 18.2042 16.8614 17.1916 14.3917 15.5313C11.9163 13.871 9.7702 12.3427 9.43523 11.695C9.40912 11.6342 9.3974 11.5671 9.40117 11.5H9.38981L9.32168 11.6384L9.31033 11.6572ZM19.2629 19.4431C19.2345 19.506 19.1721 19.506 19.0642 19.4934C18.3829 19.4117 16.305 18.2922 13.8466 16.6633C10.9852 14.764 8.62336 13.0408 8.88452 12.588L8.95265 12.4497L8.964 12.4559C8.73691 13.2232 13.6252 16.3174 13.9148 16.5187C16.7421 18.4557 19.1267 19.5941 19.3367 19.2985L19.2629 19.4431Z" fill="#FFFF00" stroke="black" stroke-width="0.075" stroke-linecap="round" stroke-linejoin="round"/>
<path fill-rule="evenodd" clip-rule="evenodd" d="M15.3473 12.5C17.2174 12.4871 19.5289 12.3103 20.8647 11.9138L20.5744 11.569C19.7903 11.8922 17.4672 12.1078 15.3299 12.1379C12.8093 12.1207 11.0263 11.944 10.1319 11.5L9.86475 11.8707C11.5025 12.3879 13.1868 12.4957 15.3473 12.5Z" fill="#FFFF00" stroke="black" stroke-width="0.075" stroke-linecap="round" stroke-linejoin="round"/>
<path fill-rule="evenodd" clip-rule="evenodd" d="M20.3373 12.1746C20.292 12.2566 19.4413 12.5782 18.1937 12.8178C17.0938 13.0031 15.9828 13.0937 14.8704 13.0889C13.8046 13.0933 12.7398 13.0175 11.6833 12.8619C10.3733 12.6349 9.69839 12.3197 9.4432 12.2062L9.50558 12.0675C10.2258 12.3827 10.9063 12.5719 11.7003 12.7106C12.7491 12.868 13.8064 12.946 14.8647 12.9439C15.9714 12.9451 17.0765 12.8545 18.171 12.6727C19.447 12.4395 20.1445 12.1431 20.2466 12.0107L20.3373 12.1746ZM20.0878 11.6639C19.9517 11.79 19.2598 12.0612 18.0462 12.2755C16.9982 12.4441 15.9407 12.5284 14.8818 12.5277C13.6341 12.5277 12.6077 12.4268 11.8307 12.3007C10.5944 12.1242 9.93658 11.7963 9.69839 11.7081L9.77212 11.5694C9.95926 11.6765 10.5888 11.9603 11.8421 12.1557C12.8496 12.3058 13.8653 12.3774 14.8818 12.3701C15.9331 12.3705 16.9831 12.2862 18.0235 12.1179C19.2428 11.9287 19.9007 11.5883 20.0027 11.5L20.0878 11.6639ZM8.87042 15.4659C9.99329 16.1405 12.4942 16.4747 14.8591 16.4999C17.0141 16.5062 19.8156 16.1342 20.8647 15.5163L20.8364 14.8417C20.5075 15.4091 17.5018 15.9577 14.8364 15.9388C12.171 15.9135 9.69272 15.4596 8.86475 14.8669V15.4659" fill="#FFFF00"/>
<path d="M8.87042 15.4659C9.99329 16.1405 12.4942 16.4747 14.8591 16.4999C17.0141 16.5062 19.8156 16.1342 20.8647 15.5163L20.8364 14.8417C20.5075 15.4091 17.5018 15.9577 14.8364 15.9388C12.171 15.9135 9.69272 15.4596 8.86475 14.8669V15.4659M20.3373 12.1746C20.292 12.2566 19.4413 12.5782 18.1937 12.8178C17.0938 13.0031 15.9828 13.0937 14.8704 13.0889C13.8046 13.0933 12.7398 13.0175 11.6833 12.8619C10.3733 12.6349 9.69839 12.3197 9.4432 12.2062L9.50558 12.0675C10.2258 12.3827 10.9063 12.5719 11.7003 12.7106C12.7491 12.868 13.8064 12.946 14.8647 12.9439C15.9714 12.9451 17.0765 12.8545 18.171 12.6727C19.447 12.4395 20.1445 12.1431 20.2466 12.0107L20.3373 12.1746ZM20.0878 11.6639C19.9517 11.79 19.2598 12.0612 18.0462 12.2755C16.9982 12.4441 15.9407 12.5284 14.8818 12.5277C13.6341 12.5277 12.6077 12.4268 11.8307 12.3007C10.5944 12.1242 9.93658 11.7963 9.69839 11.7081L9.77212 11.5694C9.95926 11.6765 10.5888 11.9603 11.8421 12.1557C12.8496 12.3058 13.8653 12.3774 14.8818 12.3701C15.9331 12.3705 16.9831 12.2862 18.0235 12.1179C19.2428 11.9287 19.9007 11.5883 20.0027 11.5L20.0878 11.6639Z" stroke="black" stroke-width="0.075" stroke-linecap="round" stroke-linejoin="round"/>
<path fill-rule="evenodd" clip-rule="evenodd" d="M20.8647 15.0985V15.2577C20.7076 15.4741 19.731 15.7925 18.5074 16.0217C17.2918 16.2199 16.0647 16.3135 14.8367 16.3018C13.6722 16.3131 12.5087 16.2215 11.3568 16.028C10.4972 15.9154 9.65731 15.6579 8.86475 15.264V15.0794C9.40918 15.4869 10.8797 15.7925 11.3736 15.8816C12.2604 16.0344 13.3998 16.149 14.8367 16.149C16.3465 16.149 17.5532 16.028 18.485 15.8689C19.3661 15.7224 20.6178 15.3468 20.8647 15.0985ZM20.8647 14.5255V14.6846C20.7076 14.8947 19.731 15.2131 18.5074 15.4423C17.2919 15.6426 16.0649 15.7384 14.8367 15.7288C13.6723 15.7366 12.5091 15.6451 11.3568 15.455C10.4972 15.3423 9.65731 15.0848 8.86475 14.691V14.5C9.40918 14.9138 10.8853 15.2131 11.3736 15.3022C12.5202 15.4927 13.6779 15.5843 14.8367 15.576C16.3465 15.576 17.5589 15.4487 18.485 15.2895C19.3661 15.1494 20.6178 14.7738 20.8647 14.5255ZM14.8591 18.9058C12.2997 18.8931 10.1052 18.1164 9.6393 17.989L9.97607 18.5875C11.5504 19.22 13.2117 19.5283 14.8816 19.498C16.8292 19.4343 18.5299 19.2624 19.7254 18.6002L20.0734 17.9763C19.2595 18.4156 16.4812 18.9058 14.8535 18.9058" fill="#FFFF00"/>
<path d="M14.8591 18.9058C12.2997 18.8931 10.1052 18.1164 9.6393 17.989L9.97607 18.5875C11.5504 19.22 13.2117 19.5283 14.8816 19.498C16.8292 19.4343 18.5299 19.2624 19.7254 18.6002L20.0734 17.9763C19.2595 18.4156 16.4812 18.9058 14.8535 18.9058M20.8647 15.0985V15.2577C20.7076 15.4741 19.731 15.7925 18.5074 16.0217C17.2918 16.2199 16.0647 16.3135 14.8367 16.3018C13.6722 16.3131 12.5087 16.2215 11.3568 16.028C10.4972 15.9154 9.65731 15.6579 8.86475 15.264V15.0794C9.40918 15.4869 10.8797 15.7925 11.3736 15.8816C12.2604 16.0344 13.3998 16.149 14.8367 16.149C16.3465 16.149 17.5532 16.028 18.485 15.8689C19.3661 15.7224 20.6178 15.3468 20.8647 15.0985ZM20.8647 14.5255V14.6846C20.7076 14.8947 19.731 15.2131 18.5074 15.4423C17.2919 15.6426 16.0649 15.7384 14.8367 15.7288C13.6723 15.7366 12.5091 15.6451 11.3568 15.455C10.4972 15.3423 9.65731 15.0848 8.86475 14.691V14.5C9.40918 14.9138 10.8853 15.2131 11.3736 15.3022C12.5202 15.4927 13.6779 15.5843 14.8367 15.576C16.3465 15.576 17.5589 15.4487 18.485 15.2895C19.3661 15.1494 20.6178 14.7738 20.8647 14.5255Z" stroke="black" stroke-width="0.075" stroke-linecap="round" stroke-linejoin="round"/>
<path fill-rule="evenodd" clip-rule="evenodd" d="M20.551 18.1768C20.4981 18.2794 20.4438 18.3808 20.3883 18.481C19.8072 18.7548 18.8774 19.0437 18.4939 19.1198C17.4648 19.3707 16.4203 19.498 15.3735 19.5C13.0259 19.4544 11.1025 18.8536 10.2018 18.3365L10.1262 18.1768L10.1379 18.1464L10.2599 18.2148C11.9137 18.931 13.6431 19.3031 15.3851 19.3175C16.4775 19.3175 17.5642 19.1578 18.4416 18.9525C19.7897 18.5951 20.336 18.3289 20.5045 18.2072L20.5451 18.1768H20.551ZM20.8589 17.5076C20.8207 17.5967 20.7819 17.6854 20.7427 17.7738C20.4289 17.9259 19.5805 18.2452 18.3428 18.4734C17.5293 18.6179 17.0238 18.7624 15.4025 18.8004C13.5492 18.776 11.7073 18.4178 9.92867 17.7357L9.86475 17.5456C11.6718 18.1992 13.5339 18.5568 15.4083 18.6103C16.8901 18.5722 17.5235 18.4278 18.3312 18.2833C19.7723 17.9943 20.4987 17.6749 20.7137 17.5913C20.7138 17.5862 20.7138 17.5811 20.7137 17.576L20.8647 17.5L20.8589 17.5076Z" fill="#FFFF00" stroke="black" stroke-width="0.075" stroke-linecap="round" stroke-linejoin="round"/>
<path fill-rule="evenodd" clip-rule="evenodd" d="M20.2517 14.8243C20.2574 16.6735 19.3832 18.3378 18.685 19.0652C17.6538 20.1573 16.2767 20.7793 14.8364 20.8035C13.1164 20.8343 11.4986 19.62 11.0615 19.0837C10.0837 17.9577 9.52721 16.4765 9.50052 14.9291C9.60269 12.9073 10.335 11.5019 11.3908 10.5341C12.4164 9.61728 13.7066 9.1219 15.035 9.1349C15.8105 9.17573 16.5696 9.39201 17.2636 9.76989C17.9576 10.1478 18.5713 10.6789 19.0653 11.3293C19.7749 12.2662 20.0871 13.2833 20.2517 14.8243ZM14.8477 8.5C16.4357 8.49995 17.9593 9.18157 19.0864 10.3963C20.2135 11.611 20.8528 13.2603 20.8647 14.9846C20.8647 15.8402 20.7096 16.6874 20.408 17.4779C20.1065 18.2684 19.6645 18.9867 19.1074 19.5917C18.5502 20.1967 17.8888 20.6766 17.1608 21.004C16.4329 21.3315 15.6527 21.5 14.8648 21.5C14.0768 21.5 13.2966 21.3315 12.5687 21.004C11.8407 20.6766 11.1793 20.1967 10.6221 19.5917C10.065 18.9867 9.62301 18.2684 9.32148 17.4779C9.01995 16.6874 8.86476 15.8402 8.86476 14.9846C8.85908 11.4094 11.5497 8.5 14.8477 8.5Z" fill="#FFFF00" stroke="black" stroke-width="0.075" stroke-linecap="round" stroke-linejoin="round"/>
<path fill-rule="evenodd" clip-rule="evenodd" d="M14.8619 8.5C18.1703 8.5 20.8647 11.4176 20.8647 15C20.8647 18.5824 18.1703 21.5 14.8676 21.5C11.5649 21.5 8.86475 18.5824 8.86475 15C8.86475 11.4176 11.5592 8.5 14.8676 8.5H14.8619ZM8.98981 14.9938C8.98981 18.4901 11.6445 21.3523 14.8619 21.3523C18.0793 21.3523 20.734 18.4901 20.734 14.9938C20.734 11.4976 18.0793 8.63542 14.8619 8.63542C11.6445 8.63542 8.98981 11.4976 8.98981 14.9938Z" fill="#FFFF00" stroke="black" stroke-width="0.075" stroke-linecap="round" stroke-linejoin="round"/>
<path fill-rule="evenodd" clip-rule="evenodd" d="M15.3647 9.5C16.8221 9.50491 18.2184 10.1383 19.2489 11.2619C20.2793 12.3854 20.8602 13.9079 20.8647 15.4969C20.8603 17.0864 20.2795 18.6096 19.2492 19.7341C18.2189 20.8587 16.8226 21.4935 15.3647 21.5C12.3503 21.5 9.86475 18.7961 9.86475 15.4969C9.87074 13.9084 10.4521 12.3869 11.4823 11.2637C12.5124 10.1404 13.9079 9.50653 15.3647 9.5ZM9.99556 15.4969C9.99556 18.7217 12.4185 21.3512 15.3647 21.3512C18.311 21.3512 20.7339 18.7155 20.7339 15.4969C20.7339 12.2721 18.311 9.64264 15.3647 9.64264C13.9426 9.64916 12.5804 10.268 11.5748 11.3645C10.5692 12.461 10.0016 13.9463 9.99556 15.4969Z" fill="#FFFF00" stroke="black" stroke-width="0.075" stroke-linecap="round" stroke-linejoin="round"/>
<path fill-rule="evenodd" clip-rule="evenodd" d="M15.8647 8.5H14.8647V21.5H15.8538L15.8647 8.5Z" fill="#FFFF00" stroke="black" stroke-width="0.075" stroke-linecap="round" stroke-linejoin="round"/>
<path fill-rule="evenodd" clip-rule="evenodd" d="M15.6612 8.5H15.8647V21.5H15.6701V8.5H15.6612ZM14.8647 8.5H15.0771V21.5H14.8736L14.8647 8.5Z" fill="#FFFF00" stroke="black" stroke-width="0.075" stroke-linecap="round" stroke-linejoin="round"/>
<path fill-rule="evenodd" clip-rule="evenodd" d="M20.8647 15.5V14.9564L20.502 14.5383L18.4443 13.8693L15.4854 13.5L11.9143 13.723L9.3749 14.4617L8.86475 14.9286V15.4791L10.1628 14.7613L13.2464 14.169H16.211L18.3877 14.4617L19.8954 14.9077L20.8647 15.5Z" fill="#FFFF00" stroke="black" stroke-width="0.075" stroke-linecap="round" stroke-linejoin="round"/>
<path fill-rule="evenodd" clip-rule="evenodd" d="M14.8704 14.0179C16.2679 14.0179 17.6206 14.1642 18.7038 14.3996C19.8152 14.654 20.5953 14.972 20.8647 15.3219V15.5C20.5392 15.0547 19.4896 14.7367 18.6758 14.5459C17.6094 14.3169 16.2623 14.1642 14.8647 14.1642C13.3998 14.1642 12.0303 14.3296 10.9751 14.5586C10.1332 14.7494 9.00506 15.1311 8.86475 15.5V15.3155C8.93771 15.0611 9.77962 14.6794 10.9583 14.4059C12.0191 14.1706 13.3886 14.0179 14.8647 14.0179H14.8704ZM14.8704 13.4391C16.1557 13.4361 17.4387 13.5639 18.7038 13.8207C19.8152 14.0752 20.5953 14.3932 20.8647 14.7494V14.9212C20.5392 14.4823 19.4896 14.1578 18.6758 13.9734C17.6094 13.738 16.2623 13.5917 14.8647 13.5917C13.5621 13.5871 12.2619 13.7191 10.9807 13.9861C10.1669 14.1578 8.99384 14.5522 8.86475 14.9212V14.7431C8.94332 14.4886 9.79646 14.0879 10.9583 13.8334C12.0247 13.5981 13.3886 13.4391 14.8704 13.4391ZM14.8367 10.5003C17.0425 10.4876 18.9676 10.8502 19.8488 11.359L20.1688 11.9951C19.4054 11.5244 17.3287 11.041 14.8423 11.1046C12.8161 11.1237 10.6496 11.359 9.56634 12.0206L9.948 11.2954C10.8404 10.7675 12.9396 10.5003 14.8367 10.5003Z" fill="#FFFF00" stroke="black" stroke-width="0.075" stroke-linecap="round" stroke-linejoin="round"/>
<path fill-rule="evenodd" clip-rule="evenodd" d="M15.3274 11.0625C16.5049 11.0412 17.6818 11.1299 18.8449 11.3277C19.763 11.5127 20.641 11.7841 20.7672 11.9321L20.8647 12.1171C20.5606 11.9074 19.7975 11.6669 18.822 11.4695C17.8465 11.2722 16.6013 11.2044 15.3217 11.2105C13.87 11.2044 12.7396 11.2845 11.7755 11.4695C11.111 11.5696 10.4658 11.7841 9.86475 12.1047L9.96229 11.9136C10.3066 11.7286 10.8402 11.5004 11.7469 11.3215C12.751 11.1242 13.8929 11.0687 15.3274 11.0625ZM15.3274 10.5075C16.5554 10.4951 17.7719 10.5691 18.7187 10.7542C19.3321 10.852 19.9257 11.0605 20.4746 11.3709L20.618 11.6175C20.377 11.3277 19.4704 11.0502 18.6613 10.9022C17.7202 10.7233 16.5554 10.6555 15.3274 10.6431C14.1844 10.6322 13.0424 10.723 11.9133 10.9145C11.3229 11.0029 10.7494 11.1924 10.2148 11.4757L10.341 11.2722C10.6738 11.0872 11.2132 10.9145 11.8903 10.7727C13.0269 10.5786 14.1767 10.4878 15.3274 10.5013V10.5075ZM18.3342 17.6798C17.3396 17.4947 16.3309 17.4121 15.3217 17.4331C11.5632 17.4824 10.3525 18.2657 10.2033 18.5L9.91639 18.0066C10.8804 17.2666 12.9232 16.8472 15.3447 16.8842C16.6013 16.9089 17.6858 17.0014 18.5924 17.1926L18.3342 17.6859" fill="#FFFF00"/>
<path d="M18.3342 17.6798C17.3396 17.4947 16.3309 17.4121 15.3217 17.4331C11.5632 17.4824 10.3525 18.2657 10.2033 18.5L9.91639 18.0066C10.8804 17.2666 12.9232 16.8472 15.3447 16.8842C16.6013 16.9089 17.6858 17.0014 18.5924 17.1926L18.3342 17.6859M15.3274 11.0625C16.5049 11.0412 17.6818 11.1299 18.8449 11.3277C19.763 11.5127 20.641 11.7841 20.7672 11.9321L20.8647 12.1171C20.5606 11.9074 19.7975 11.6669 18.822 11.4695C17.8465 11.2722 16.6013 11.2044 15.3217 11.2105C13.87 11.2044 12.7396 11.2845 11.7755 11.4695C11.111 11.5696 10.4658 11.7841 9.86475 12.1047L9.96229 11.9136C10.3066 11.7286 10.8402 11.5004 11.7469 11.3215C12.751 11.1242 13.8929 11.0687 15.3274 11.0625ZM15.3274 10.5075C16.5554 10.4951 17.7719 10.5691 18.7187 10.7542C19.3321 10.852 19.9257 11.0605 20.4746 11.3709L20.618 11.6175C20.377 11.3277 19.4704 11.0502 18.6613 10.9022C17.7202 10.7233 16.5554 10.6555 15.3274 10.6431C14.1844 10.6322 13.0424 10.723 11.9133 10.9145C11.3229 11.0029 10.7494 11.1924 10.2148 11.4757L10.341 11.2722C10.6738 11.0872 11.2132 10.9145 11.8903 10.7727C13.0269 10.5786 14.1767 10.4878 15.3274 10.5013V10.5075Z" stroke="black" stroke-width="0.075" stroke-linecap="round" stroke-linejoin="round"/>
<path fill-rule="evenodd" clip-rule="evenodd" d="M15.4426 17.1216C16.5146 17.1419 17.563 17.1892 18.582 17.4054L18.5113 17.5541C17.5689 17.3514 16.5558 17.2838 15.4485 17.2838C14.0172 17.2703 12.5801 17.4257 11.3255 17.8378C10.9308 17.9662 10.277 18.2568 10.2064 18.5L10.1357 18.3649C10.1592 18.2162 10.548 17.9189 11.2901 17.6892C12.7273 17.2162 14.0702 17.1284 15.4426 17.1216ZM15.4897 16.5C16.6212 16.4987 17.7506 16.6117 18.8647 16.8378L18.7882 16.9933C17.7002 16.7643 16.5958 16.6535 15.4897 16.6622C14.0644 16.6622 12.5506 16.7838 11.1723 17.2433C10.7306 17.3919 9.95899 17.7162 9.93543 17.9662L9.86475 17.8176C9.87653 17.5878 10.5421 17.2838 11.1429 17.0878C12.5271 16.6216 14.0467 16.5068 15.4897 16.5Z" fill="#FFFF00" stroke="black" stroke-width="0.075" stroke-linecap="round" stroke-linejoin="round"/>
<path fill-rule="evenodd" clip-rule="evenodd" d="M20.8358 17.7971L20.3845 18.5L19.071 17.3514L15.6801 15.0943L11.8495 13.02L9.86475 12.3514L10.2872 11.5743L10.4318 11.5L11.6643 11.8029L15.738 13.8771L18.0873 15.34L20.0604 16.74L20.8647 17.6543L20.8358 17.7971Z" fill="#FFFF00" stroke="black" stroke-width="0.075" stroke-linecap="round" stroke-linejoin="round"/>
<path fill-rule="evenodd" clip-rule="evenodd" d="M8.93848 12.5195C9.27878 12.2695 11.7857 13.4944 14.4174 15.2442C17.032 16.994 19.5389 18.9688 19.3121 19.3375L19.2383 19.4688L19.2043 19.5C19.21 19.4938 19.2497 19.4375 19.2043 19.3063C19.0909 18.9001 17.3099 17.3377 14.3663 15.3755C11.4908 13.4944 9.09729 12.357 8.86475 12.682L8.93848 12.5195ZM19.8509 18.4501C20.0664 17.9752 17.741 16.0441 14.8541 14.1631C11.9048 12.3195 9.77222 11.2322 9.38087 11.5571L9.30147 11.7383C9.30147 11.7446 9.30147 11.7259 9.32416 11.7071C9.39222 11.6446 9.51132 11.6446 9.56237 11.6446C10.2316 11.6571 12.143 12.6258 14.8257 14.3193C16.0054 15.0692 19.7942 17.7564 19.7771 18.5064C19.7771 18.5689 19.7828 18.5813 19.7601 18.6188L19.8566 18.4564L19.8509 18.4501Z" fill="#FFFF00" stroke="black" stroke-width="0.075" stroke-linecap="round" stroke-linejoin="round"/>
<path d="M11.8647 15.6494C11.8656 16.1534 11.9573 16.6523 12.1344 17.1171C12.3116 17.5819 12.5707 18.0034 12.8968 18.3571C13.2189 18.7173 13.6025 19.0037 14.0256 19.1998C14.4486 19.3959 14.9028 19.498 15.3618 19.5C16.2908 19.4999 17.1818 19.0935 17.8386 18.3701C18.1636 18.0144 18.4215 17.5915 18.5976 17.1257C18.7736 16.6599 18.8644 16.1604 18.8647 15.6558V10.513L11.8647 10.5V15.6494Z" fill="white" stroke="black" stroke-width="0.0933336"/>
<path d="M11.8647 15.6737C11.866 16.1753 11.9579 16.6716 12.1352 17.1341C12.3124 17.5966 12.5714 18.0161 12.8972 18.3683C13.5515 19.0892 14.4401 19.4962 15.3678 19.5C16.294 19.5006 17.1825 19.0984 17.8384 18.3817C18.1632 18.029 18.421 17.6093 18.5972 17.1468C18.7733 16.6844 18.8643 16.1883 18.8647 15.6871V10.5H11.8647V15.6737ZM17.4574 12.0561V15.3503L17.4512 15.6939C17.4533 15.9948 17.3999 16.2931 17.2943 16.5709C17.1887 16.8487 17.0331 17.1003 16.8367 17.3106C16.4458 17.7405 15.9153 17.9828 15.3617 17.9843C14.784 17.9843 14.2739 17.7148 13.8928 17.2972C13.5007 16.8688 13.2796 16.2873 13.2783 15.6804V12.0427L17.4574 12.0561Z" fill="#FF0000" stroke="black" stroke-width="0.0666669"/>
<path d="M11.8647 11.7547C11.8702 11.5487 12.0845 11.5 12.0845 11.5C12.09 11.5 12.3208 11.5524 12.3208 11.7584L11.8647 11.7547Z" fill="#FFFF00"/>
<path d="M11.9527 10.9456L11.9142 11.1816H12.145C12.145 10.9868 12.3647 10.9569 12.3647 10.9569C12.3702 10.9569 12.5845 10.9981 12.59 11.1816H12.8208L12.7768 10.9419L11.9527 10.9456ZM11.8977 11.1853H12.8318C12.8483 11.1853 12.8647 11.1966 12.8647 11.2116C12.8647 11.2303 12.8483 11.2415 12.8318 11.2415H11.8977C11.8812 11.2415 11.8647 11.2303 11.8647 11.2116C11.8647 11.1966 11.8812 11.1853 11.9032 11.1853H11.8977Z" fill="#FFFF00" stroke="black" stroke-width="0.0666669"/>
<path d="M12.2384 11.1816C12.2384 11.0581 12.3647 11.0243 12.3647 11.0243C12.3647 11.0243 12.4911 11.0618 12.4911 11.1816H12.2384ZM11.9197 10.8446H12.8153C12.8318 10.8446 12.8483 10.8596 12.8483 10.8745C12.8483 10.8858 12.8318 10.897 12.8153 10.897H11.9197C11.9032 10.897 11.8867 10.8858 11.8867 10.8708C11.8867 10.8596 11.9032 10.8483 11.9197 10.8483V10.8446ZM11.9417 10.9007H12.7878C12.8043 10.9007 12.8208 10.912 12.8208 10.927C12.8208 10.9419 12.8043 10.9532 12.7878 10.9532H11.9362C11.9142 10.9532 11.9032 10.9419 11.9032 10.927C11.9032 10.912 11.9142 10.9007 11.9362 10.9007H11.9417ZM12.2164 10.5037H12.2823V10.5337H12.3318V10.5037H12.4032V10.5375H12.4527V10.5H12.5186V10.5749C12.5186 10.5899 12.5076 10.5974 12.4911 10.5974H12.2494C12.2329 10.5974 12.2164 10.5899 12.2164 10.5787V10.5037ZM12.4691 10.6049L12.4856 10.8446H12.2494L12.2658 10.6011H12.4691" fill="#FFFF00"/>
<path d="M12.4691 10.6049L12.4856 10.8446H12.2494L12.2658 10.6011H12.4691M12.2384 11.1816C12.2384 11.0581 12.3647 11.0243 12.3647 11.0243C12.3647 11.0243 12.4911 11.0618 12.4911 11.1816H12.2384ZM11.9197 10.8446H12.8153C12.8318 10.8446 12.8483 10.8596 12.8483 10.8745C12.8483 10.8858 12.8318 10.897 12.8153 10.897H11.9197C11.9032 10.897 11.8867 10.8858 11.8867 10.8708C11.8867 10.8596 11.9032 10.8483 11.9197 10.8483V10.8446ZM11.9417 10.9007H12.7878C12.8043 10.9007 12.8208 10.912 12.8208 10.927C12.8208 10.9419 12.8043 10.9532 12.7878 10.9532H11.9362C11.9142 10.9532 11.9032 10.9419 11.9032 10.927C11.9032 10.912 11.9142 10.9007 11.9362 10.9007H11.9417ZM12.2164 10.5037H12.2823V10.5337H12.3318V10.5037H12.4032V10.5375H12.4527V10.5H12.5186V10.5749C12.5186 10.5899 12.5076 10.5974 12.4911 10.5974H12.2494C12.2329 10.5974 12.2164 10.5899 12.2164 10.5787V10.5037Z" stroke="black" stroke-width="0.0666669"/>
<path d="M12.1834 10.7172V10.8445H11.9636V10.7172H12.1834Z" fill="#FFFF00" stroke="black" stroke-width="0.0666669"/>
<path d="M12.7659 10.7172V10.8445H12.5461V10.7172H12.7659Z" fill="#FFFF00" stroke="black" stroke-width="0.0666669"/>
<path d="M11.9252 10.6199H11.9911V10.6573H12.0406V10.6199H12.1065V10.6573H12.1559V10.6199H12.2219V10.6948C12.2219 10.7098 12.2109 10.7173 12.1944 10.7173H11.9581C11.9494 10.7173 11.941 10.7149 11.9348 10.7107C11.9286 10.7065 11.9252 10.7007 11.9252 10.6948V10.6199Z" fill="#FFFF00" stroke="black" stroke-width="0.0666669"/>
<path d="M12.5076 10.6199H12.5735V10.6573H12.623V10.6199H12.6889V10.6573H12.7383V10.6199H12.8043V10.6948C12.8043 10.7098 12.7933 10.7173 12.7768 10.7173H12.5405C12.5318 10.7173 12.5234 10.7149 12.5172 10.7107C12.511 10.7065 12.5076 10.7007 12.5076 10.6948V10.6199Z" fill="#FFFF00" stroke="black" stroke-width="0.0666669"/>
<path d="M12.3428 10.6798C12.3428 10.6573 12.3922 10.6573 12.3922 10.6798V10.7397H12.3428V10.6798Z" fill="#000001"/>
<path d="M12.0515 10.7622C12.0515 10.7397 12.0955 10.7397 12.0955 10.7622V10.8072H12.0515V10.7622Z" fill="#000001"/>
<path d="M12.634 10.7622C12.634 10.7397 12.678 10.7397 12.678 10.7622V10.8072H12.634V10.7622Z" fill="#000001"/>
<path d="M12.166 14.9169C12.172 14.5426 12.407 14.4541 12.407 14.4541C12.413 14.4541 12.666 14.5494 12.666 14.9237L12.166 14.9169Z" fill="#FFFF00"/>
<path d="M11.9611 14.4609L11.919 14.8897H12.172C12.172 14.5358 12.4129 14.4813 12.4129 14.4813C12.419 14.4813 12.6539 14.5562 12.6599 14.8897H12.913L12.8648 14.4541L11.9611 14.4609ZM11.9009 14.8965H12.925C12.9431 14.8965 12.9611 14.9169 12.9611 14.9441C12.9611 14.9781 12.9431 14.9986 12.925 14.9986H11.9009C11.8828 14.9986 11.8647 14.9781 11.8647 14.9441C11.8647 14.9169 11.8828 14.8965 11.9069 14.8965H11.9009Z" fill="#FFFF00" stroke="black" stroke-width="0.0666669"/>
<path d="M12.2743 14.8896C12.2743 14.6651 12.4129 14.6038 12.4129 14.6038C12.4129 14.6038 12.5515 14.6719 12.5515 14.8896H12.2743ZM11.9249 14.2771H12.9069C12.925 14.2771 12.943 14.3044 12.943 14.3316C12.943 14.352 12.925 14.3724 12.9069 14.3724H11.9249C11.9069 14.3724 11.8888 14.352 11.8888 14.3248C11.8888 14.3043 11.9069 14.2839 11.9249 14.2839V14.2771ZM11.949 14.3792H12.8768C12.8948 14.3792 12.9129 14.3996 12.9129 14.4269C12.9129 14.4541 12.8948 14.4745 12.8768 14.4745H11.943C11.9189 14.4745 11.9069 14.4541 11.9069 14.4269C11.9069 14.3996 11.9189 14.3792 11.943 14.3792H11.949ZM12.2502 13.6578H12.3225V13.7123H12.3768V13.6578H12.4551V13.7191H12.5093V13.651H12.5816V13.7871C12.5816 13.8143 12.5695 13.8279 12.5515 13.8279H12.2864C12.2683 13.8279 12.2502 13.8143 12.2502 13.7939V13.6578ZM12.5274 13.8416L12.5454 14.2771H12.2864L12.3045 13.8348H12.5274" fill="#FFFF00"/>
<path d="M12.5274 13.8416L12.5454 14.2771H12.2864L12.3045 13.8348H12.5274M12.2743 14.8896C12.2743 14.6651 12.4129 14.6038 12.4129 14.6038C12.4129 14.6038 12.5515 14.6719 12.5515 14.8896H12.2743ZM11.9249 14.2771H12.9069C12.925 14.2771 12.943 14.3044 12.943 14.3316C12.943 14.352 12.925 14.3724 12.9069 14.3724H11.9249C11.9069 14.3724 11.8888 14.352 11.8888 14.3248C11.8888 14.3043 11.9069 14.2839 11.9249 14.2839V14.2771ZM11.949 14.3792H12.8768C12.8948 14.3792 12.9129 14.3996 12.9129 14.4269C12.9129 14.4541 12.8948 14.4745 12.8768 14.4745H11.943C11.9189 14.4745 11.9069 14.4541 11.9069 14.4269C11.9069 14.3996 11.9189 14.3792 11.943 14.3792H11.949ZM12.2502 13.6578H12.3225V13.7123H12.3768V13.6578H12.4551V13.7191H12.5093V13.651H12.5816V13.7871C12.5816 13.8143 12.5695 13.8279 12.5515 13.8279H12.2864C12.2683 13.8279 12.2502 13.8143 12.2502 13.7939V13.6578Z" stroke="black" stroke-width="0.0666669"/>
<path d="M12.2141 14.0458V14.2772H11.9731V14.0458H12.2141Z" fill="#FFFF00" stroke="black" stroke-width="0.0666669"/>
<path d="M12.8527 14.0458V14.2772H12.6117V14.0458H12.8527Z" fill="#FFFF00" stroke="black" stroke-width="0.0666669"/>
<path d="M11.931 13.8688H12.0033V13.9368H12.0575V13.8688H12.1298V13.9368H12.184V13.8688H12.2563V14.0049C12.2563 14.0321 12.2443 14.0457 12.2262 14.0457H11.9672C11.9576 14.0457 11.9484 14.0414 11.9416 14.0338C11.9348 14.0261 11.931 14.0157 11.931 14.0049V13.8688Z" fill="#FFFF00" stroke="black" stroke-width="0.0666669"/>
<path d="M12.5696 13.8688H12.6419V13.9368H12.6961V13.8688H12.7684V13.9368H12.8226V13.8688H12.8949V14.0049C12.8949 14.0321 12.8828 14.0457 12.8648 14.0457H12.6057C12.5961 14.0457 12.5869 14.0414 12.5802 14.0338C12.5734 14.0261 12.5696 14.0157 12.5696 14.0049V13.8688Z" fill="#FFFF00" stroke="black" stroke-width="0.0666669"/>
<path d="M12.3888 13.9776C12.3888 13.9368 12.443 13.9368 12.443 13.9776V14.0865H12.3888V13.9776Z" fill="#000001"/>
<path d="M12.0696 14.1274C12.0696 14.0866 12.1178 14.0866 12.1178 14.1274V14.2091H12.0696V14.1274Z" fill="#000001"/>
<path d="M12.7081 14.1274C12.7081 14.0866 12.7563 14.0866 12.7563 14.1274V14.2091H12.7081V14.1274Z" fill="#000001"/>
<path d="M13.2532 18.201C13.0223 17.9324 13.1323 17.6817 13.1323 17.6817C13.1365 17.6769 13.3747 17.5413 13.6098 17.805L13.2532 18.201Z" fill="#FFFF00"/>
<path d="M12.8224 18.0439L13.0621 18.3798L13.2403 18.177C13.018 17.9276 13.1536 17.6961 13.1536 17.6961C13.1578 17.6913 13.3704 17.5557 13.5841 17.7859L13.7624 17.5831L13.4548 17.3148L12.8224 18.0439ZM13.0536 18.3991L13.7752 17.5782C13.7879 17.5637 13.8135 17.5637 13.8306 17.5828C13.8519 17.6068 13.852 17.6357 13.8393 17.6502L13.1177 18.4711C13.105 18.4856 13.0794 18.4857 13.0581 18.4617C13.041 18.4425 13.0409 18.4136 13.0579 18.3943L13.0536 18.3991Z" fill="#FFFF00" stroke="black" stroke-width="0.0666669"/>
<path d="M13.3125 18.095C13.1714 17.9367 13.2306 17.7825 13.2306 17.7825C13.2306 17.7825 13.371 17.7194 13.5078 17.8729L13.3125 18.095ZM12.6816 17.9434L13.3734 17.1564C13.3861 17.1419 13.416 17.1466 13.4331 17.1658C13.4459 17.1801 13.446 17.209 13.4333 17.2235L12.7414 18.0105C12.7287 18.025 12.7032 18.0251 12.6861 18.0059C12.6732 17.9916 12.6731 17.9627 12.6859 17.9482L12.6816 17.9434ZM12.7627 17.996L13.4163 17.2524C13.4291 17.238 13.4546 17.2379 13.4717 17.257C13.4888 17.2762 13.4889 17.3051 13.4762 17.3196L12.8183 18.068C12.8013 18.0873 12.78 18.0826 12.7629 18.0634C12.7458 18.0442 12.7415 18.0202 12.7585 18.0009L12.7627 17.996ZM12.5218 17.2462L12.5727 17.1883L12.6069 17.2266L12.6451 17.1832L12.6109 17.1448L12.6661 17.082L12.7045 17.1252L12.7427 17.0818L12.7 17.0338L12.7509 16.9758L12.8364 17.0718C12.8535 17.091 12.8536 17.1102 12.8408 17.1247L12.6541 17.3371C12.6414 17.3516 12.6201 17.3565 12.6073 17.3421L12.5218 17.2462ZM12.8324 17.1536L13.1188 17.4461L12.9363 17.6537L12.6711 17.3275L12.8281 17.1488" fill="#FFFF00"/>
<path d="M12.8324 17.1536L13.1188 17.4461L12.9363 17.6537L12.6711 17.3275L12.8281 17.1488M13.3125 18.095C13.1714 17.9367 13.2306 17.7825 13.2306 17.7825C13.2306 17.7825 13.371 17.7194 13.5078 17.8729L13.3125 18.095ZM12.6816 17.9434L13.3734 17.1564C13.3861 17.1419 13.416 17.1466 13.4331 17.1658C13.4459 17.1801 13.446 17.209 13.4333 17.2235L12.7414 18.0105C12.7287 18.025 12.7032 18.0251 12.6861 18.0059C12.6732 17.9916 12.6731 17.9627 12.6859 17.9482L12.6816 17.9434ZM12.7627 17.996L13.4163 17.2524C13.4291 17.238 13.4546 17.2379 13.4717 17.257C13.4888 17.2762 13.4889 17.3051 13.4762 17.3196L12.8183 18.068C12.8013 18.0873 12.78 18.0826 12.7629 18.0634C12.7458 18.0442 12.7415 18.0202 12.7585 18.0009L12.7627 17.996ZM12.5218 17.2462L12.5727 17.1883L12.6069 17.2266L12.6451 17.1832L12.6109 17.1448L12.6661 17.082L12.7045 17.1252L12.7427 17.0818L12.7 17.0338L12.7509 16.9758L12.8364 17.0718C12.8535 17.091 12.8536 17.1102 12.8408 17.1247L12.6541 17.3371C12.6414 17.3516 12.6201 17.3565 12.6073 17.3421L12.5218 17.2462Z" stroke="black" stroke-width="0.0666669"/>
<path d="M12.74 17.5486L12.8853 17.7116L12.7155 17.9048L12.5702 17.7417L12.74 17.5486Z" fill="#FFFF00" stroke="black" stroke-width="0.0666669"/>
<path d="M13.1899 17.0367L13.3353 17.1998L13.1655 17.3929L13.0201 17.2299L13.1899 17.0367Z" fill="#FFFF00" stroke="black" stroke-width="0.0666669"/>
<path d="M12.4293 17.6509L12.4803 17.5929L12.523 17.6409L12.5612 17.5974L12.5185 17.5495L12.5694 17.4915L12.6121 17.5395L12.6503 17.496L12.6076 17.4481L12.6585 17.3901L12.744 17.4861C12.7611 17.5052 12.7612 17.5245 12.7485 17.539L12.5659 17.7466C12.5592 17.7543 12.55 17.7586 12.5404 17.7587C12.5308 17.7587 12.5216 17.7544 12.5148 17.7468L12.4293 17.6509Z" fill="#FFFF00" stroke="black" stroke-width="0.0666669"/>
<path d="M12.8793 17.1389L12.9302 17.081L12.973 17.1289L13.0112 17.0855L12.9684 17.0375L13.0193 16.9796L13.0621 17.0275L13.1003 16.9841L13.0575 16.9361L13.1085 16.8782L13.194 16.9741C13.2111 16.9933 13.2111 17.0125 13.1984 17.027L13.0159 17.2346C13.0091 17.2423 13 17.2467 12.9904 17.2467C12.9808 17.2467 12.9716 17.2425 12.9648 17.2348L12.8793 17.1389Z" fill="#FFFF00" stroke="black" stroke-width="0.0666669"/>
<path d="M12.8204 17.3606C12.7947 17.3318 12.8329 17.2883 12.8586 17.3171L12.927 17.3939L12.8888 17.4373L12.8204 17.3606Z" fill="#000001"/>
<path d="M12.6894 17.722C12.6638 17.6932 12.6977 17.6546 12.7234 17.6834L12.7747 17.7409L12.7407 17.7796L12.6894 17.722Z" fill="#000001"/>
<path d="M13.1394 17.2102C13.1137 17.1814 13.1477 17.1428 13.1733 17.1716L13.2246 17.2291L13.1907 17.2677L13.1394 17.2102Z" fill="#000001"/>
<path d="M15.126 11.974C15.1319 11.6169 15.3619 11.5325 15.3619 11.5325C15.3678 11.5325 15.6154 11.6234 15.6154 11.9805L15.126 11.974Z" fill="#FFFF00"/>
<path d="M14.9254 11.539L14.8841 11.9481H15.1318C15.1318 11.6104 15.3677 11.5584 15.3677 11.5584C15.3736 11.5584 15.6036 11.6299 15.6095 11.9481H15.8572L15.81 11.5325L14.9254 11.539ZM14.8664 11.9545H15.869C15.8867 11.9545 15.9043 11.974 15.9043 12C15.9043 12.0325 15.8867 12.052 15.869 12.052H14.8664C14.8487 12.052 14.8311 12.0325 14.8311 12C14.8311 11.974 14.8487 11.9545 14.8723 11.9545H14.8664Z" fill="#FFFF00" stroke="black" stroke-width="0.0666669"/>
<path d="M15.232 11.9481C15.232 11.7338 15.3677 11.6753 15.3677 11.6753C15.3677 11.6753 15.5033 11.7403 15.5033 11.9481H15.232ZM14.89 11.3636H15.8512C15.8689 11.3636 15.8866 11.3896 15.8866 11.4156C15.8866 11.4351 15.8689 11.4545 15.8512 11.4545H14.89C14.8723 11.4545 14.8546 11.4351 14.8546 11.4091C14.8546 11.3896 14.8723 11.3701 14.89 11.3701V11.3636ZM14.9136 11.461H15.8218C15.8394 11.461 15.8571 11.4805 15.8571 11.5065C15.8571 11.5325 15.8394 11.5519 15.8218 11.5519H14.9077C14.8841 11.5519 14.8723 11.5325 14.8723 11.5065C14.8723 11.4805 14.8841 11.461 14.9077 11.461H14.9136ZM15.2084 10.7727H15.2792V10.8247H15.3323V10.7727H15.409V10.8312H15.462V10.7662H15.5328V10.8961C15.5328 10.9221 15.521 10.9351 15.5033 10.9351H15.2438C15.2261 10.9351 15.2084 10.9221 15.2084 10.9026V10.7727ZM15.4797 10.9481L15.4974 11.3636H15.2438L15.2615 10.9416H15.4797" fill="#FFFF00"/>
<path d="M15.4797 10.9481L15.4974 11.3636H15.2438L15.2615 10.9416H15.4797M15.232 11.9481C15.232 11.7338 15.3677 11.6753 15.3677 11.6753C15.3677 11.6753 15.5033 11.7403 15.5033 11.9481H15.232ZM14.89 11.3636H15.8512C15.8689 11.3636 15.8866 11.3896 15.8866 11.4156C15.8866 11.4351 15.8689 11.4545 15.8512 11.4545H14.89C14.8723 11.4545 14.8546 11.4351 14.8546 11.4091C14.8546 11.3896 14.8723 11.3701 14.89 11.3701V11.3636ZM14.9136 11.461H15.8218C15.8394 11.461 15.8571 11.4805 15.8571 11.5065C15.8571 11.5325 15.8394 11.5519 15.8218 11.5519H14.9077C14.8841 11.5519 14.8723 11.5325 14.8723 11.5065C14.8723 11.4805 14.8841 11.461 14.9077 11.461H14.9136ZM15.2084 10.7727H15.2792V10.8247H15.3323V10.7727H15.409V10.8312H15.462V10.7662H15.5328V10.8961C15.5328 10.9221 15.521 10.9351 15.5033 10.9351H15.2438C15.2261 10.9351 15.2084 10.9221 15.2084 10.9026V10.7727Z" stroke="black" stroke-width="0.0666669"/>
<path d="M15.1731 11.1428V11.3636H14.9373V11.1428H15.1731Z" fill="#FFFF00" stroke="black" stroke-width="0.0666669"/>
<path d="M15.7981 11.1428V11.3636H15.5623V11.1428H15.7981Z" fill="#FFFF00" stroke="black" stroke-width="0.0666669"/>
<path d="M14.8959 10.974H14.9666V11.0389H15.0197V10.974H15.0905V11.0389H15.1436V10.974H15.2143V11.1039C15.2143 11.1298 15.2025 11.1428 15.1848 11.1428H14.9313C14.9219 11.1428 14.9129 11.1387 14.9062 11.1314C14.8996 11.1241 14.8959 11.1142 14.8959 11.1039V10.974Z" fill="#FFFF00" stroke="black" stroke-width="0.0666669"/>
<path d="M15.521 10.974H15.5918V11.0389H15.6448V10.974H15.7156V11.0389H15.7687V10.974H15.8394V11.1039C15.8394 11.1298 15.8277 11.1428 15.81 11.1428H15.5564C15.547 11.1428 15.538 11.1387 15.5314 11.1314C15.5247 11.1241 15.521 11.1142 15.521 11.1039V10.974Z" fill="#FFFF00" stroke="black" stroke-width="0.0666669"/>
<path d="M15.3441 11.0779C15.3441 11.039 15.3972 11.039 15.3972 11.0779V11.1818H15.3441V11.0779Z" fill="#000001"/>
<path d="M15.0316 11.2207C15.0316 11.1818 15.0788 11.1818 15.0788 11.2207V11.2987H15.0316V11.2207Z" fill="#000001"/>
<path d="M15.6566 11.2207C15.6566 11.1818 15.7038 11.1818 15.7038 11.2207V11.2987H15.6566V11.2207Z" fill="#000001"/>
<path d="M18.2927 11.974C18.2868 11.6169 18.0568 11.5325 18.0568 11.5325C18.0509 11.5325 17.8033 11.6234 17.8033 11.9805L18.2927 11.974Z" fill="#FFFF00"/>
<path d="M18.4932 11.539L18.5344 11.9481H18.2868C18.2868 11.6104 18.0509 11.5584 18.0509 11.5584C18.045 11.5584 17.815 11.6299 17.8091 11.9481H17.5614L17.6086 11.5325L18.4932 11.539ZM18.5521 11.9545H17.5496C17.5319 11.9545 17.5142 11.974 17.5142 12C17.5142 12.0325 17.5319 12.052 17.5496 12.052H18.5521C18.5698 12.052 18.5875 12.0325 18.5875 12C18.5875 11.974 18.5698 11.9545 18.5462 11.9545H18.5521Z" fill="#FFFF00" stroke="black" stroke-width="0.0666669"/>
<path d="M18.1865 11.9481C18.1865 11.7338 18.0509 11.6753 18.0509 11.6753C18.0509 11.6753 17.9153 11.7403 17.9153 11.9481H18.1865ZM18.5286 11.3636H17.5673C17.5496 11.3636 17.532 11.3896 17.532 11.4156C17.532 11.4351 17.5496 11.4545 17.5673 11.4545H18.5286C18.5463 11.4545 18.564 11.4351 18.564 11.4091C18.564 11.3896 18.5463 11.3701 18.5286 11.3701V11.3636ZM18.505 11.461H17.5968C17.5791 11.461 17.5614 11.4805 17.5614 11.5065C17.5614 11.5325 17.5791 11.5519 17.5968 11.5519H18.5109C18.5345 11.5519 18.5463 11.5325 18.5463 11.5065C18.5463 11.4805 18.5345 11.461 18.5109 11.461H18.505ZM18.2101 10.7727H18.1394V10.8247H18.0863V10.7727H18.0096V10.8312H17.9566V10.7662H17.8858V10.8961C17.8858 10.9221 17.8976 10.9351 17.9153 10.9351H18.1747C18.1924 10.9351 18.2101 10.9221 18.2101 10.9026V10.7727ZM17.9389 10.9481L17.9212 11.3636H18.1747L18.1571 10.9416H17.9389" fill="#FFFF00"/>
<path d="M17.9389 10.9481L17.9212 11.3636H18.1747L18.1571 10.9416H17.9389M18.1865 11.9481C18.1865 11.7338 18.0509 11.6753 18.0509 11.6753C18.0509 11.6753 17.9153 11.7403 17.9153 11.9481H18.1865ZM18.5286 11.3636H17.5673C17.5496 11.3636 17.532 11.3896 17.532 11.4156C17.532 11.4351 17.5496 11.4545 17.5673 11.4545H18.5286C18.5463 11.4545 18.564 11.4351 18.564 11.4091C18.564 11.3896 18.5463 11.3701 18.5286 11.3701V11.3636ZM18.505 11.461H17.5968C17.5791 11.461 17.5614 11.4805 17.5614 11.5065C17.5614 11.5325 17.5791 11.5519 17.5968 11.5519H18.5109C18.5345 11.5519 18.5463 11.5325 18.5463 11.5065C18.5463 11.4805 18.5345 11.461 18.5109 11.461H18.505ZM18.2101 10.7727H18.1394V10.8247H18.0863V10.7727H18.0096V10.8312H17.9566V10.7662H17.8858V10.8961C17.8858 10.9221 17.8976 10.9351 17.9153 10.9351H18.1747C18.1924 10.9351 18.2101 10.9221 18.2101 10.9026V10.7727Z" stroke="black" stroke-width="0.0666669"/>
<path d="M18.2456 11.1428V11.3636H18.4814V11.1428H18.2456Z" fill="#FFFF00" stroke="black" stroke-width="0.0666669"/>
<path d="M17.6204 11.1428V11.3636H17.8563V11.1428H17.6204Z" fill="#FFFF00" stroke="black" stroke-width="0.0666669"/>
<path d="M18.5227 10.974H18.4519V11.0389H18.3989V10.974H18.3281V11.0389H18.275V10.974H18.2043V11.1039C18.2043 11.1298 18.216 11.1428 18.2337 11.1428H18.4873C18.4967 11.1428 18.5057 11.1387 18.5123 11.1314C18.519 11.1241 18.5227 11.1142 18.5227 11.1039V10.974Z" fill="#FFFF00" stroke="black" stroke-width="0.0666669"/>
<path d="M17.8976 10.974H17.8268V11.0389H17.7737V10.974H17.703V11.0389H17.6499V10.974H17.5791V11.1039C17.5791 11.1298 17.5909 11.1428 17.6086 11.1428H17.8622C17.8716 11.1428 17.8806 11.1387 17.8872 11.1314C17.8939 11.1241 17.8976 11.1142 17.8976 11.1039V10.974Z" fill="#FFFF00" stroke="black" stroke-width="0.0666669"/>
<path d="M18.0745 11.0779C18.0745 11.039 18.0214 11.039 18.0214 11.0779V11.1818H18.0745V11.0779Z" fill="#000001"/>
<path d="M18.3871 11.2207C18.3871 11.1818 18.3399 11.1818 18.3399 11.2207V11.2987H18.3871V11.2207Z" fill="#000001"/>
<path d="M17.762 11.2207C17.762 11.1818 17.7148 11.1818 17.7148 11.2207V11.2987H17.762V11.2207Z" fill="#000001"/>
<path d="M18.2926 14.9805C18.2867 14.6234 18.0567 14.5389 18.0567 14.5389C18.0508 14.5389 17.8031 14.6298 17.8031 14.987L18.2926 14.9805Z" fill="#FFFF00"/>
<path d="M18.4932 14.5454L18.5344 14.9545H18.2868C18.2868 14.6169 18.0509 14.5649 18.0509 14.5649C18.045 14.5649 17.815 14.6363 17.8091 14.9545H17.5614L17.6086 14.5389L18.4932 14.5454ZM18.5521 14.961H17.5496C17.5319 14.961 17.5142 14.9805 17.5142 15.0065C17.5142 15.0389 17.5319 15.0584 17.5496 15.0584H18.5521C18.5698 15.0584 18.5875 15.0389 18.5875 15.0065C18.5875 14.9805 18.5698 14.961 18.5462 14.961H18.5521Z" fill="#FFFF00" stroke="black" stroke-width="0.0666669"/>
<path d="M18.1865 14.9545C18.1865 14.7402 18.0509 14.6818 18.0509 14.6818C18.0509 14.6818 17.9153 14.7467 17.9153 14.9545H18.1865ZM18.5286 14.3701H17.5673C17.5496 14.3701 17.532 14.3961 17.532 14.4221C17.532 14.4415 17.5496 14.461 17.5673 14.461H18.5286C18.5463 14.461 18.564 14.4415 18.564 14.4156C18.564 14.3961 18.5463 14.3766 18.5286 14.3766V14.3701ZM18.505 14.4675H17.5968C17.5791 14.4675 17.5614 14.487 17.5614 14.513C17.5614 14.5389 17.5791 14.5584 17.5968 14.5584H18.5109C18.5345 14.5584 18.5463 14.5389 18.5463 14.513C18.5463 14.487 18.5345 14.4675 18.5109 14.4675H18.505ZM18.2101 13.7792H18.1394V13.8311H18.0863V13.7792H18.0096V13.8376H17.9566V13.7727H17.8858V13.9026C17.8858 13.9285 17.8976 13.9415 17.9153 13.9415H18.1747C18.1924 13.9415 18.2101 13.9285 18.2101 13.9091V13.7792ZM17.9389 13.9545L17.9212 14.3701H18.1747L18.1571 13.948H17.9389" fill="#FFFF00"/>
<path d="M17.9389 13.9545L17.9212 14.3701H18.1747L18.1571 13.948H17.9389M18.1865 14.9545C18.1865 14.7402 18.0509 14.6818 18.0509 14.6818C18.0509 14.6818 17.9153 14.7467 17.9153 14.9545H18.1865ZM18.5286 14.3701H17.5673C17.5496 14.3701 17.532 14.3961 17.532 14.4221C17.532 14.4415 17.5496 14.461 17.5673 14.461H18.5286C18.5463 14.461 18.564 14.4415 18.564 14.4156C18.564 14.3961 18.5463 14.3766 18.5286 14.3766V14.3701ZM18.505 14.4675H17.5968C17.5791 14.4675 17.5614 14.487 17.5614 14.513C17.5614 14.5389 17.5791 14.5584 17.5968 14.5584H18.5109C18.5345 14.5584 18.5463 14.5389 18.5463 14.513C18.5463 14.487 18.5345 14.4675 18.5109 14.4675H18.505ZM18.2101 13.7792H18.1394V13.8311H18.0863V13.7792H18.0096V13.8376H17.9566V13.7727H17.8858V13.9026C17.8858 13.9285 17.8976 13.9415 17.9153 13.9415H18.1747C18.1924 13.9415 18.2101 13.9285 18.2101 13.9091V13.7792Z" stroke="black" stroke-width="0.0666669"/>
<path d="M18.2454 14.1493V14.3701H18.4813V14.1493H18.2454Z" fill="#FFFF00" stroke="black" stroke-width="0.0666669"/>
<path d="M17.6204 14.1493V14.3701H17.8563V14.1493H17.6204Z" fill="#FFFF00" stroke="black" stroke-width="0.0666669"/>
<path d="M18.5227 13.9805H18.4519V14.0454H18.3989V13.9805H18.3281V14.0454H18.275V13.9805H18.2043V14.1103C18.2043 14.1363 18.216 14.1493 18.2337 14.1493H18.4873C18.4967 14.1493 18.5057 14.1452 18.5123 14.1379C18.519 14.1306 18.5227 14.1207 18.5227 14.1103V13.9805Z" fill="#FFFF00" stroke="black" stroke-width="0.0666669"/>
<path d="M17.8976 13.9805H17.8268V14.0454H17.7737V13.9805H17.703V14.0454H17.6499V13.9805H17.5791V14.1103C17.5791 14.1363 17.5909 14.1493 17.6086 14.1493H17.8622C17.8716 14.1493 17.8806 14.1452 17.8872 14.1379C17.8939 14.1306 17.8976 14.1207 17.8976 14.1103V13.9805Z" fill="#FFFF00" stroke="black" stroke-width="0.0666669"/>
<path d="M18.0745 14.0844C18.0745 14.0454 18.0214 14.0454 18.0214 14.0844V14.1883H18.0745V14.0844Z" fill="#000001"/>
<path d="M18.387 14.2272C18.387 14.1883 18.3398 14.1883 18.3398 14.2272V14.3051H18.387V14.2272Z" fill="#000001"/>
<path d="M17.762 14.2272C17.762 14.1883 17.7148 14.1883 17.7148 14.2272V14.3051H17.762V14.2272Z" fill="#000001"/>
<path d="M17.2284 18.1139C17.4544 17.8576 17.3467 17.6185 17.3467 17.6185C17.3426 17.6138 17.1095 17.4844 16.8793 17.7361L17.2284 18.1139Z" fill="#FFFF00"/>
<path d="M17.65 17.9639L17.4155 18.2845L17.2409 18.091C17.4586 17.853 17.3259 17.6321 17.3259 17.6321C17.3217 17.6275 17.1136 17.4982 16.9044 17.7178L16.7299 17.5243L17.031 17.2683L17.65 17.9639ZM17.4237 18.3029L16.7174 17.5197C16.7049 17.5058 16.6799 17.5058 16.6631 17.5241C16.6422 17.5469 16.6421 17.5745 16.6546 17.5883L17.361 18.3715C17.3734 18.3854 17.3984 18.3855 17.4194 18.3626C17.4361 18.3443 17.4362 18.3167 17.4196 18.2983L17.4237 18.3029Z" fill="#FFFF00" stroke="black" stroke-width="0.0666669"/>
<path d="M17.1703 18.0127C17.3084 17.8617 17.2505 17.7146 17.2505 17.7146C17.2505 17.7146 17.1131 17.6544 16.9792 17.8008L17.1703 18.0127ZM17.7879 17.8681L17.1107 17.1172C17.0982 17.1033 17.069 17.1078 17.0523 17.1261C17.0397 17.1398 17.0396 17.1674 17.0521 17.1812L17.7293 17.9322C17.7418 17.946 17.7668 17.9461 17.7836 17.9278C17.7961 17.914 17.7962 17.8865 17.7837 17.8727L17.7879 17.8681ZM17.7085 17.9183L17.0687 17.2088C17.0562 17.195 17.0312 17.1949 17.0145 17.2132C16.9977 17.2315 16.9976 17.2591 17.0101 17.2729L17.6541 17.987C17.6707 18.0054 17.6916 18.0009 17.7083 17.9826C17.7251 17.9643 17.7293 17.9413 17.7127 17.9229L17.7085 17.9183ZM17.9444 17.2029L17.8945 17.1476L17.8611 17.1842L17.8237 17.1427L17.8571 17.1061L17.8031 17.0462L17.7655 17.0874L17.7281 17.046L17.7699 17.0002L17.7201 16.9449L17.6364 17.0364C17.6196 17.0548 17.6196 17.0731 17.632 17.0869L17.8148 17.2896C17.8273 17.3035 17.8481 17.3081 17.8607 17.2944L17.9444 17.2029ZM17.6403 17.1145L17.36 17.3936L17.5386 17.5917L17.7982 17.2804L17.6445 17.1099" fill="#FFFF00"/>
<path d="M17.6403 17.1145L17.36 17.3936L17.5386 17.5917L17.7982 17.2804L17.6445 17.1099M17.1703 18.0127C17.3084 17.8617 17.2505 17.7146 17.2505 17.7146C17.2505 17.7146 17.1131 17.6544 16.9792 17.8008L17.1703 18.0127ZM17.7879 17.8681L17.1107 17.1172C17.0982 17.1033 17.069 17.1078 17.0523 17.1261C17.0397 17.1398 17.0396 17.1674 17.0521 17.1812L17.7293 17.9322C17.7418 17.946 17.7668 17.9461 17.7836 17.9278C17.7961 17.914 17.7962 17.8865 17.7837 17.8727L17.7879 17.8681ZM17.7085 17.9183L17.0687 17.2088C17.0562 17.195 17.0312 17.1949 17.0145 17.2132C16.9977 17.2315 16.9976 17.2591 17.0101 17.2729L17.6541 17.987C17.6707 18.0054 17.6916 18.0009 17.7083 17.9826C17.7251 17.9643 17.7293 17.9413 17.7127 17.9229L17.7085 17.9183ZM17.9444 17.2029L17.8945 17.1476L17.8611 17.1842L17.8237 17.1427L17.8571 17.1061L17.8031 17.0462L17.7655 17.0874L17.7281 17.046L17.7699 17.0002L17.7201 16.9449L17.6364 17.0364C17.6196 17.0548 17.6196 17.0731 17.632 17.0869L17.8148 17.2896C17.8273 17.3035 17.8481 17.3081 17.8607 17.2944L17.9444 17.2029Z" stroke="black" stroke-width="0.0666669"/>
<path d="M17.7308 17.4914L17.5885 17.647L17.7547 17.8312L17.897 17.6757L17.7308 17.4914Z" fill="#FFFF00" stroke="black" stroke-width="0.0666669"/>
<path d="M17.2903 17.003L17.1481 17.1586L17.3143 17.3428L17.4565 17.1873L17.2903 17.003Z" fill="#FFFF00" stroke="black" stroke-width="0.0666669"/>
<path d="M18.0349 17.589L17.9851 17.5337L17.9432 17.5795L17.9058 17.538L17.9477 17.4922L17.8978 17.437L17.8559 17.4827L17.8185 17.4412L17.8604 17.3955L17.8105 17.3402L17.7268 17.4317C17.7101 17.45 17.71 17.4684 17.7225 17.4822L17.9012 17.6803C17.9078 17.6877 17.9168 17.6918 17.9261 17.6918C17.9355 17.6919 17.9445 17.6878 17.9512 17.6805L18.0349 17.589Z" fill="#FFFF00" stroke="black" stroke-width="0.0666669"/>
<path d="M17.5944 17.1006L17.5445 17.0453L17.5026 17.0911L17.4653 17.0496L17.5071 17.0038L17.4572 16.9485L17.4154 16.9943L17.378 16.9528L17.4198 16.9071L17.37 16.8518L17.2863 16.9433C17.2695 16.9616 17.2695 16.98 17.2819 16.9938L17.4606 17.1919C17.4672 17.1993 17.4762 17.2034 17.4856 17.2034C17.495 17.2035 17.504 17.1994 17.5107 17.1921L17.5944 17.1006Z" fill="#FFFF00" stroke="black" stroke-width="0.0666669"/>
<path d="M17.6521 17.3121C17.6772 17.2846 17.6398 17.2432 17.6147 17.2706L17.5477 17.3438L17.5851 17.3853L17.6521 17.3121Z" fill="#000001"/>
<path d="M17.7802 17.6569C17.8053 17.6295 17.7721 17.5926 17.747 17.6201L17.6968 17.675L17.73 17.7119L17.7802 17.6569Z" fill="#000001"/>
<path d="M17.3398 17.1685C17.3649 17.1411 17.3317 17.1042 17.3066 17.1317L17.2564 17.1866L17.2896 17.2235L17.3398 17.1685Z" fill="#000001"/>
<path d="M14.9313 15.0909C14.9302 15.228 14.9766 15.3604 15.061 15.4611C15.1004 15.5096 15.1486 15.5485 15.2024 15.5753C15.2562 15.6021 15.3145 15.6163 15.3736 15.6169C15.4974 15.6169 15.6095 15.552 15.6861 15.4611C15.7705 15.3604 15.8169 15.228 15.8159 15.0909V14.3896H14.9313V15.0909Z" fill="#003399"/>
<path d="M15.1377 14.7533C15.1865 14.7533 15.2261 14.7097 15.2261 14.6559C15.2261 14.6021 15.1865 14.5585 15.1377 14.5585C15.0888 14.5585 15.0492 14.6021 15.0492 14.6559C15.0492 14.7097 15.0888 14.7533 15.1377 14.7533Z" fill="white"/>
<path d="M15.6272 14.7533C15.676 14.7533 15.7156 14.7097 15.7156 14.6559C15.7156 14.6021 15.676 14.5585 15.6272 14.5585C15.5783 14.5585 15.5387 14.6021 15.5387 14.6559C15.5387 14.7097 15.5783 14.7533 15.6272 14.7533Z" fill="white"/>
<path d="M15.3795 15.013C15.4283 15.013 15.4679 14.9694 15.4679 14.9156C15.4679 14.8618 15.4283 14.8182 15.3795 14.8182C15.3306 14.8182 15.291 14.8618 15.291 14.9156C15.291 14.9694 15.3306 15.013 15.3795 15.013Z" fill="white"/>
<path d="M15.1377 15.2857C15.1865 15.2857 15.2261 15.2421 15.2261 15.1883C15.2261 15.1346 15.1865 15.0909 15.1377 15.0909C15.0888 15.0909 15.0492 15.1346 15.0492 15.1883C15.0492 15.2421 15.0888 15.2857 15.1377 15.2857Z" fill="white"/>
<path d="M15.6272 15.2857C15.676 15.2857 15.7156 15.2421 15.7156 15.1883C15.7156 15.1346 15.676 15.0909 15.6272 15.0909C15.5783 15.0909 15.5387 15.1346 15.5387 15.1883C15.5387 15.2421 15.5783 15.2857 15.6272 15.2857Z" fill="white"/>
<path d="M14.9313 13.4026C14.9302 13.5396 14.9766 13.672 15.061 13.7727C15.1004 13.8212 15.1486 13.8601 15.2024 13.887C15.2562 13.9138 15.3145 13.928 15.3736 13.9286C15.4974 13.9286 15.6095 13.8636 15.6861 13.7727C15.7705 13.672 15.8169 13.5396 15.8159 13.4026V12.7013H14.9313V13.4026Z" fill="#003399"/>
<path d="M15.1377 13.0649C15.1865 13.0649 15.2261 13.0213 15.2261 12.9675C15.2261 12.9137 15.1865 12.8701 15.1377 12.8701C15.0888 12.8701 15.0492 12.9137 15.0492 12.9675C15.0492 13.0213 15.0888 13.0649 15.1377 13.0649Z" fill="white"/>
<path d="M15.6272 13.0649C15.676 13.0649 15.7156 13.0213 15.7156 12.9675C15.7156 12.9137 15.676 12.8701 15.6272 12.8701C15.5783 12.8701 15.5387 12.9137 15.5387 12.9675C15.5387 13.0213 15.5783 13.0649 15.6272 13.0649Z" fill="white"/>
<path d="M15.3795 13.3247C15.4283 13.3247 15.4679 13.2811 15.4679 13.2273C15.4679 13.1735 15.4283 13.1299 15.3795 13.1299C15.3306 13.1299 15.291 13.1735 15.291 13.2273C15.291 13.2811 15.3306 13.3247 15.3795 13.3247Z" fill="white"/>
<path d="M15.1377 13.5974C15.1865 13.5974 15.2261 13.5538 15.2261 13.5C15.2261 13.4462 15.1865 13.4026 15.1377 13.4026C15.0888 13.4026 15.0492 13.4462 15.0492 13.5C15.0492 13.5538 15.0888 13.5974 15.1377 13.5974Z" fill="white"/>
<path d="M15.6272 13.5974C15.676 13.5974 15.7156 13.5538 15.7156 13.5C15.7156 13.4462 15.676 13.4026 15.6272 13.4026C15.5783 13.4026 15.5387 13.4462 15.5387 13.5C15.5387 13.5538 15.5783 13.5974 15.6272 13.5974Z" fill="white"/>
<path d="M13.7047 15.0909C13.7037 15.228 13.7501 15.3604 13.8345 15.4611C13.8739 15.5096 13.922 15.5485 13.9758 15.5753C14.0296 15.6021 14.0879 15.6163 14.147 15.6169C14.2709 15.6169 14.3829 15.552 14.4596 15.4611C14.544 15.3604 14.5904 15.228 14.5893 15.0909V14.3896H13.7047V15.0909Z" fill="#003399"/>
<path d="M13.9111 14.7533C13.9599 14.7533 13.9995 14.7097 13.9995 14.6559C13.9995 14.6021 13.9599 14.5585 13.9111 14.5585C13.8622 14.5585 13.8226 14.6021 13.8226 14.6559C13.8226 14.7097 13.8622 14.7533 13.9111 14.7533Z" fill="white"/>
<path d="M14.4006 14.7533C14.4494 14.7533 14.4891 14.7097 14.4891 14.6559C14.4891 14.6021 14.4494 14.5585 14.4006 14.5585C14.3517 14.5585 14.3121 14.6021 14.3121 14.6559C14.3121 14.7097 14.3517 14.7533 14.4006 14.7533Z" fill="white"/>
<path d="M14.1529 15.013C14.2018 15.013 14.2414 14.9694 14.2414 14.9156C14.2414 14.8618 14.2018 14.8182 14.1529 14.8182C14.1041 14.8182 14.0645 14.8618 14.0645 14.9156C14.0645 14.9694 14.1041 15.013 14.1529 15.013Z" fill="white"/>
<path d="M13.9111 15.2857C13.9599 15.2857 13.9995 15.2421 13.9995 15.1883C13.9995 15.1346 13.9599 15.0909 13.9111 15.0909C13.8622 15.0909 13.8226 15.1346 13.8226 15.1883C13.8226 15.2421 13.8622 15.2857 13.9111 15.2857Z" fill="white"/>
<path d="M14.4006 15.2857C14.4494 15.2857 14.4891 15.2421 14.4891 15.1883C14.4891 15.1346 14.4494 15.0909 14.4006 15.0909C14.3517 15.0909 14.3121 15.1346 14.3121 15.1883C14.3121 15.2421 14.3517 15.2857 14.4006 15.2857Z" fill="white"/>
<path d="M16.158 15.0909C16.1569 15.228 16.2033 15.3604 16.2877 15.4611C16.3271 15.5096 16.3752 15.5485 16.4291 15.5753C16.4829 15.6021 16.5412 15.6163 16.6003 15.6169C16.7241 15.6169 16.8362 15.552 16.9128 15.4611C16.9972 15.3604 17.0436 15.228 17.0426 15.0909V14.3896H16.158V15.0909Z" fill="#003399"/>
<path d="M16.3643 14.7533C16.4132 14.7533 16.4528 14.7097 16.4528 14.6559C16.4528 14.6021 16.4132 14.5585 16.3643 14.5585C16.3155 14.5585 16.2759 14.6021 16.2759 14.6559C16.2759 14.7097 16.3155 14.7533 16.3643 14.7533Z" fill="white"/>
<path d="M16.8538 14.7533C16.9027 14.7533 16.9423 14.7097 16.9423 14.6559C16.9423 14.6021 16.9027 14.5585 16.8538 14.5585C16.805 14.5585 16.7654 14.6021 16.7654 14.6559C16.7654 14.7097 16.805 14.7533 16.8538 14.7533Z" fill="white"/>
<path d="M16.6062 15.013C16.655 15.013 16.6946 14.9694 16.6946 14.9156C16.6946 14.8618 16.655 14.8182 16.6062 14.8182C16.5573 14.8182 16.5177 14.8618 16.5177 14.9156C16.5177 14.9694 16.5573 15.013 16.6062 15.013Z" fill="white"/>
<path d="M16.3643 15.2857C16.4132 15.2857 16.4528 15.2421 16.4528 15.1883C16.4528 15.1346 16.4132 15.0909 16.3643 15.0909C16.3155 15.0909 16.2759 15.1346 16.2759 15.1883C16.2759 15.2421 16.3155 15.2857 16.3643 15.2857Z" fill="white"/>
<path d="M16.8538 15.2857C16.9027 15.2857 16.9423 15.2421 16.9423 15.1883C16.9423 15.1346 16.9027 15.0909 16.8538 15.0909C16.805 15.0909 16.7654 15.1346 16.7654 15.1883C16.7654 15.2421 16.805 15.2857 16.8538 15.2857Z" fill="white"/>
<path d="M14.9313 16.7662C14.9302 16.9033 14.9766 17.0356 15.061 17.1364C15.1004 17.1849 15.1486 17.2238 15.2024 17.2506C15.2562 17.2774 15.3145 17.2916 15.3736 17.2922C15.4974 17.2922 15.6095 17.2273 15.6861 17.1364C15.7705 17.0356 15.8169 16.9033 15.8159 16.7662V16.0649H14.9313V16.7662Z" fill="#003399"/>
<path d="M15.1377 16.4286C15.1865 16.4286 15.2261 16.385 15.2261 16.3312C15.2261 16.2774 15.1865 16.2338 15.1377 16.2338C15.0888 16.2338 15.0492 16.2774 15.0492 16.3312C15.0492 16.385 15.0888 16.4286 15.1377 16.4286Z" fill="white"/>
<path d="M15.6272 16.4286C15.676 16.4286 15.7156 16.385 15.7156 16.3312C15.7156 16.2774 15.676 16.2338 15.6272 16.2338C15.5783 16.2338 15.5387 16.2774 15.5387 16.3312C15.5387 16.385 15.5783 16.4286 15.6272 16.4286Z" fill="white"/>
<path d="M15.3795 16.6883C15.4283 16.6883 15.4679 16.6447 15.4679 16.5909C15.4679 16.5371 15.4283 16.4935 15.3795 16.4935C15.3306 16.4935 15.291 16.5371 15.291 16.5909C15.291 16.6447 15.3306 16.6883 15.3795 16.6883Z" fill="white"/>
<path d="M15.1377 16.961C15.1865 16.961 15.2261 16.9174 15.2261 16.8636C15.2261 16.8098 15.1865 16.7662 15.1377 16.7662C15.0888 16.7662 15.0492 16.8098 15.0492 16.8636C15.0492 16.9174 15.0888 16.961 15.1377 16.961Z" fill="white"/>
<path d="M15.6272 16.961C15.676 16.961 15.7156 16.9174 15.7156 16.8636C15.7156 16.8098 15.676 16.7662 15.6272 16.7662C15.5783 16.7662 15.5387 16.8098 15.5387 16.8636C15.5387 16.9174 15.5783 16.961 15.6272 16.961Z" fill="white"/>
</g>
</g>
<path d="M1.23568 4.16322C1.23568 2.34494 2.70969 0.870931 4.52797 0.870931H33.2015C35.0198 0.870931 36.4938 2.34494 36.4938 4.16322V22.8368C36.4938 24.6551 35.0198 26.1291 33.2015 26.1291H4.52797C2.70969 26.1291 1.23568 24.6551 1.23568 22.8368V4.16322Z" stroke="#FFAA1D" stroke-width="0.741863"/>
<defs>
<clipPath id="clip0_1_1326">
<path d="M0.864746 4.16322C0.864746 2.14008 2.50483 0.5 4.52797 0.5H33.2015C35.2247 0.5 36.8647 2.14008 36.8647 4.16322V22.8368C36.8647 24.8599 35.2247 26.5 33.2015 26.5H4.52797C2.50483 26.5 0.864746 24.8599 0.864746 22.8368V4.16322Z" fill="white"/>
</clipPath>
<clipPath id="clip1_1_1326">
<rect width="36" height="28" fill="white" transform="translate(0.864746 0.5)"/>
</clipPath>
</defs>
</svg>
