<svg width="36" height="27" viewBox="0 0 36 27" fill="none" xmlns="http://www.w3.org/2000/svg">
<g clip-path="url(#clip0_1_1182)">
<path d="M0 4.16322C0 2.14008 1.64008 0.5 3.66322 0.5H32.3368C34.3599 0.5 36 2.14008 36 4.16322V22.8368C36 24.8599 34.3599 26.5 32.3368 26.5H3.66322C1.64008 26.5 0 24.8599 0 22.8368V4.16322Z" fill="white"/>
<g clip-path="url(#clip1_1_1182)">
<g clip-path="url(#clip2_1_1182)">
<path d="M38 0V26.9871L37.9874 27H-4V0H38Z" fill="#2E4593"/>
<path d="M38 24.1851V26.9871L37.9874 27H33.6195L20.7304 18.7231L19.4427 17.8967L17.9152 16.9283L17.4103 16.5925L15.8575 15.5983L15.2768 15.2238L14.7971 14.9268L13.8251 14.2941L13.5095 14.1004L13.0298 13.7905L8.45987 10.8465L6.40216 9.52941L-4 2.86657V0.0645624L-3.96213 0L-3.88638 0.0645624H0.367899L13.5095 8.4835L14.7971 9.3099L15.138 9.52941L17.2083 10.8465L17.4103 10.9885L18.193 11.4921L19.4427 12.2927L19.6573 12.4218L20.7304 13.1191L21.7908 13.7905L24.6059 15.5983L26.6763 16.9283L38 24.1851Z" fill="#FCF5FF"/>
<path d="M37.9874 26.8967L38 27L35.1857 26.9871L20.723 17.7075L19.4862 16.9202L19.4357 16.8815L18.1863 16.0813L17.4417 15.5908L16.0661 14.7132L14.7915 13.9001L14.6148 13.7839L13.8197 13.2806L13.5042 13.0741L10.0337 10.8413L7.97656 9.52486L-4 1.8456V0H-3.96214L-3.88642 0.0645315L10.8918 9.52486L12.9363 10.8413L13.5042 11.2027L14.7915 12.0416L15.271 12.3513L16.0661 12.8547L17.5174 13.7839L19.4357 15.01L19.6502 15.152L20.3443 15.5908L20.723 15.836L22.4014 16.9202L37.9874 26.8967Z" fill="#F42525"/>
<path d="M38 0.530681V3.33941L28.4184 9.48754L26.3607 10.8078L21.7908 13.7589L20.7304 14.4319L19.6573 15.1309L19.4427 15.2603L18.9504 15.5709L18.193 16.0628L17.4103 16.5676L16.8927 16.9041L14.7971 18.2502L13.5095 19.0786L1.18846 27H-4V24.709L8.14427 16.9041L10.202 15.5709L13.0298 13.7589L13.5095 13.4612L13.8251 13.2541L14.7971 12.6198L15.2768 12.3221L17.4103 10.9501L17.6123 10.8078L19.4427 9.64286L19.67 9.48754L20.7304 8.81448L34.4527 0H37.6718L38 0.530681Z" fill="#FCF5FF"/>
<path d="M37.8864 0.673058L24.1641 9.48754L22.1064 10.8078L20.7304 11.7009L19.6573 12.3869L19.4427 12.5292L17.5239 13.7589L16.0721 14.6908L15.2768 15.1956L14.7971 15.5192L14.6961 15.5709L13.5095 16.3476L12.6384 16.9041L-3.0532 27H-4V25.7315L9.7349 16.9041L11.7926 15.5709L13.5095 14.4708L13.8251 14.2637L14.6204 13.7589L14.7971 13.6424L16.0721 12.8269L18.193 11.4549L19.1903 10.8078L19.4427 10.6524L20.7304 9.82406L21.248 9.48754L36.018 0H37.4824H38V0.582454L37.8864 0.673058Z" fill="#F42525"/>
<path d="M38 10H-4V17H38V10Z" fill="white"/>
<path d="M38 11H-4V16H38V11Z" fill="#F42525"/>
<path d="M20 0H15V27H20V0Z" fill="#CD002A"/>
<path d="M19.7517 16.9041H21V27H14V16.9041H15.2483V9.48754H14V0H21V9.48754H19.7517V16.9041Z" fill="white"/>
<path d="M20 0H15V27H20V0Z" fill="#F42525"/>
</g>
</g>
</g>
<path d="M0.370931 4.16322C0.370931 2.34494 1.84494 0.870931 3.66322 0.870931H32.3368C34.1551 0.870931 35.6291 2.34494 35.6291 4.16322V22.8368C35.6291 24.6551 34.1551 26.1291 32.3368 26.1291H3.66322C1.84494 26.1291 0.370931 24.6551 0.370931 22.8368V4.16322Z" stroke="#FFAA1D" stroke-width="0.741863"/>
<defs>
<clipPath id="clip0_1_1182">
<path d="M0 4.16322C0 2.14008 1.64008 0.5 3.66322 0.5H32.3368C34.3599 0.5 36 2.14008 36 4.16322V22.8368C36 24.8599 34.3599 26.5 32.3368 26.5H3.66322C1.64008 26.5 0 24.8599 0 22.8368V4.16322Z" fill="white"/>
</clipPath>
<clipPath id="clip1_1_1182">
<rect width="42" height="26" fill="white" transform="translate(-4)"/>
</clipPath>
<clipPath id="clip2_1_1182">
<rect width="42" height="27" fill="white" transform="translate(-4)"/>
</clipPath>
</defs>
</svg>
