<svg width="37" height="27" viewBox="0 0 37 27" fill="none" xmlns="http://www.w3.org/2000/svg">
<g clip-path="url(#clip0_1_1202)">
<path d="M0.864746 4.16322C0.864746 2.14008 2.50483 0.5 4.52797 0.5H33.2015C35.2247 0.5 36.8647 2.14008 36.8647 4.16322V22.8368C36.8647 24.8599 35.2247 26.5 33.2015 26.5H4.52797C2.50483 26.5 0.864746 24.8599 0.864746 22.8368V4.16322Z" fill="white"/>
<g clip-path="url(#clip1_1_1202)">
<path d="M41.8647 8.5H0.864746V10.5H41.8647V8.5Z" fill="#DB2E2E"/>
<path d="M41.8647 4.5H0.864746V6.5H41.8647V4.5Z" fill="#DB2E2E"/>
<path d="M41.8647 0.5H0.864746V2.5H41.8647V0.5Z" fill="#DB2E2E"/>
<path d="M41.8647 12.5H0.864746V14.5H41.8647V12.5Z" fill="#DB2E2E"/>
<path d="M41.8647 17.5H0.864746V19.5H41.8647V17.5Z" fill="#DB2E2E"/>
<path d="M41.8647 21.5H0.864746V23.5H41.8647V21.5Z" fill="#DB2E2E"/>
<path d="M41.8647 25.5H0.864746V27.5H41.8647V25.5Z" fill="#DB2E2E"/>
<path d="M41.8647 6.5H0.864746V8.5H41.8647V6.5Z" fill="white"/>
<path d="M41.8647 2.5H0.864746V4.5H41.8647V2.5Z" fill="white"/>
<path d="M41.8647 10.5H0.864746V12.5H41.8647V10.5Z" fill="white"/>
<path d="M41.8647 15.5H0.864746V17.5H41.8647V15.5Z" fill="white"/>
<path d="M41.8647 19.5H0.864746V21.5H41.8647V19.5Z" fill="white"/>
<path d="M41.8647 23.5H0.864746V25.5H41.8647V23.5Z" fill="white"/>
<path d="M15.8647 0.5H0.864746V13.5H15.8647V0.5Z" fill="#2E4593"/>
<path d="M13.5474 3.11616L13.6724 3.5L13.3647 3.25758L13.0571 3.5L13.1821 3.11616L12.8647 2.89394H13.2494L13.3551 2.5L13.4705 2.89394H13.4801H13.8647L13.5474 3.11616H13.5378H13.5474Z" fill="white"/>
<path d="M13.5474 6.12L13.6724 6.5L13.3647 6.26L13.0571 6.5L13.1821 6.12V6.11L12.8647 5.89H13.2494L13.3551 5.5L13.4705 5.89H13.4801H13.8647L13.5474 6.11H13.5378L13.5474 6.12Z" fill="white"/>
<path d="M13.5474 8.11616L13.6724 8.5L13.3647 8.25758L13.0571 8.5L13.1821 8.11616L12.8647 7.88384H13.2494L13.3551 7.5L13.4705 7.88384H13.4801H13.8647L13.5474 8.11616H13.5378H13.5474Z" fill="white"/>
<path d="M13.5474 11.1162L13.6724 11.5L13.3647 11.2576L13.0571 11.5L13.1821 11.1162L12.8647 10.8838H13.2494L13.3551 10.5L13.4705 10.8838V10.8939L13.4801 10.8838H13.8647L13.5474 11.1162H13.5378H13.5474Z" fill="white"/>
<path d="M11.5474 3.11616L11.6821 3.5L11.3647 3.25758L11.0571 3.5L11.1821 3.11616L10.8647 2.89394H11.2494L11.3551 2.5L11.4801 2.89394H11.4705H11.4801H11.8647L11.5474 3.11616H11.5378H11.5474Z" fill="white"/>
<path d="M11.5474 6.12L11.6821 6.5L11.3647 6.26L11.0571 6.5L11.1821 6.12V6.11L10.8647 5.89H11.2494L11.3551 5.5L11.4801 5.89H11.4705H11.4801H11.8647L11.5474 6.11H11.5378L11.5474 6.12Z" fill="white"/>
<path d="M11.5474 8.11616L11.6821 8.5L11.3647 8.25758L11.0571 8.5L11.1821 8.11616L10.8647 7.88384H11.2494L11.3551 7.5L11.4801 7.88384H11.4705H11.4801H11.8647L11.5474 8.11616H11.5378H11.5474Z" fill="white"/>
<path d="M11.5474 11.1162L11.6821 11.5L11.3647 11.2576L11.0571 11.5L11.1821 11.1162L10.8647 10.8838H11.2494L11.3551 10.5L11.4801 10.8838L11.4705 10.8939L11.4801 10.8838H11.8647L11.5474 11.1162H11.5378H11.5474Z" fill="white"/>
<path d="M8.54744 3.11616L8.68205 3.5L8.36475 3.25758L8.05705 3.5L8.18205 3.11616H8.19167H8.18205L7.86475 2.89394H8.24936L8.35513 2.5L8.48013 2.89394H8.47052H8.48013H8.86475L8.54744 3.11616Z" fill="white"/>
<path d="M8.54744 6.12L8.68205 6.5L8.36475 6.26L8.05705 6.5L8.18205 6.12L8.19167 6.11H8.18205L7.86475 5.89H8.24936L8.35513 5.5L8.48013 5.89H8.47052H8.48013H8.86475L8.54744 6.11V6.12Z" fill="white"/>
<path d="M8.54744 8.11616L8.68205 8.5L8.36475 8.25758L8.05705 8.5L8.18205 8.11616H8.19167H8.18205L7.86475 7.88384H8.24936L8.35513 7.5L8.48013 7.88384H8.47052H8.48013H8.86475L8.54744 8.11616Z" fill="white"/>
<path d="M8.54744 11.1162L8.68205 11.5L8.36475 11.2576L8.05705 11.5L8.18205 11.1162H8.19167H8.18205L7.86475 10.8838H8.24936L8.35513 10.5L8.48013 10.8838L8.47052 10.8939L8.48013 10.8838H8.86475L8.54744 11.1162Z" fill="white"/>
<path d="M6.55046 3.11616L6.67427 3.5L6.36951 3.25758L6.05522 3.5L6.18856 3.11616L5.86475 2.89394H6.25522L6.35998 2.5L6.47427 2.89394H6.86475L6.54094 3.11616H6.55046Z" fill="white"/>
<path d="M6.55046 6.12L6.67427 6.5L6.36951 6.26L6.05522 6.5L6.18856 6.12V6.11L5.86475 5.89H6.25522L6.35998 5.5L6.47427 5.89H6.86475L6.54094 6.11L6.55046 6.12Z" fill="white"/>
<path d="M6.55046 8.11616L6.67427 8.5L6.36951 8.25758L6.05522 8.5L6.18856 8.11616L5.86475 7.88384H6.25522L6.35998 7.5L6.47427 7.88384H6.86475L6.54094 8.11616H6.55046Z" fill="white"/>
<path d="M6.55046 11.1162L6.67427 11.5L6.36951 11.2576L6.05522 11.5L6.18856 11.1162L5.86475 10.8838H6.25522L6.35998 10.5L6.47427 10.8838V10.8939V10.8838H6.86475L6.54094 11.1162H6.55046Z" fill="white"/>
<path d="M3.54744 3.11616L3.67244 3.5L3.36475 3.25758L3.05705 3.5L3.18205 3.11616L2.86475 2.89394H3.24936L3.35513 2.5L3.48013 2.89394H3.86475L3.54744 3.11616H3.53782H3.54744Z" fill="white"/>
<path d="M3.54744 6.12L3.67244 6.5L3.36475 6.26L3.05705 6.5L3.18205 6.12V6.11L2.86475 5.89H3.24936L3.35513 5.5L3.48013 5.89H3.86475L3.54744 6.11H3.53782L3.54744 6.12Z" fill="white"/>
<path d="M3.54744 8.11616L3.67244 8.5L3.36475 8.25758L3.05705 8.5L3.18205 8.11616L2.86475 7.88384H3.24936L3.35513 7.5L3.48013 7.88384H3.86475L3.54744 8.11616H3.53782H3.54744Z" fill="white"/>
<path d="M3.54744 11.1162L3.67244 11.5L3.36475 11.2576L3.05705 11.5L3.18205 11.1162L2.86475 10.8838H3.24936L3.35513 10.5L3.48013 10.8838V10.8939V10.8838H3.86475L3.54744 11.1162H3.53782H3.54744Z" fill="white"/>
<path d="M15.5474 4.12L15.6724 4.5L15.3647 4.26L15.0474 4.5L15.1821 4.12V4.11L14.8647 3.89H15.2494L15.3551 3.5L15.4705 3.89H15.8647L15.5378 4.11L15.5474 4.12Z" fill="white"/>
<path d="M15.5474 7.11616L15.6724 7.5L15.3647 7.25758L15.0474 7.5L15.1821 7.11616L14.8647 6.88384H15.2494L15.3551 6.5L15.4705 6.88384H15.8647L15.5378 7.11616H15.5474Z" fill="white"/>
<path d="M15.5474 9.12L15.6724 9.5L15.3647 9.26L15.0474 9.5L15.1821 9.12V9.11L14.8647 8.89H15.2494L15.3551 8.5L15.4705 8.89H15.8647L15.5378 9.11L15.5474 9.12Z" fill="white"/>
<path d="M15.5474 12.11L15.6724 12.5L15.3647 12.25L15.0474 12.5L15.1821 12.11L14.8647 11.89H15.2494L15.3551 11.5L15.4705 11.89H15.8647L15.5378 12.11H15.5474Z" fill="white"/>
<path d="M15.5474 2.11616L15.6724 2.5L15.3647 2.26768V2.25758V2.26768L15.0474 2.5L15.1821 2.11616L14.8647 1.88384H15.2494L15.3551 1.5L15.4705 1.88384V1.89394V1.88384H15.8647L15.5378 2.11616H15.5474Z" fill="white"/>
<path d="M12.5409 4.12L12.6743 4.5L12.3695 4.26L12.0552 4.5L12.1886 4.12V4.11L11.8647 3.89H12.2552L12.36 3.5L12.4743 3.89H12.8647L12.5409 4.11V4.12Z" fill="white"/>
<path d="M12.5409 7.11616L12.6743 7.5L12.3695 7.25758L12.0552 7.5L12.1886 7.11616L11.8647 6.88384H12.2552L12.36 6.5L12.4743 6.88384H12.8647L12.5409 7.11616Z" fill="white"/>
<path d="M12.5409 9.12L12.6743 9.5L12.3695 9.26L12.0552 9.5L12.1886 9.12V9.11L11.8647 8.89H12.2552L12.36 8.5L12.4743 8.89H12.8647L12.5409 9.11V9.12Z" fill="white"/>
<path d="M12.5409 12.11L12.6743 12.5L12.3695 12.25L12.0552 12.5L12.1886 12.11L11.8647 11.89H12.2552L12.36 11.5L12.4743 11.89H12.8647L12.5409 12.11Z" fill="white"/>
<path d="M12.5409 2.11616L12.6743 2.5L12.3695 2.26768V2.25758V2.26768L12.0552 2.5L12.1886 2.11616L11.8647 1.88384H12.2552L12.36 1.5L12.4743 1.88384V1.89394V1.88384H12.8647L12.5409 2.11616Z" fill="white"/>
<path d="M10.5474 4.12L10.6821 4.5L10.3647 4.26L10.0571 4.5L10.1821 4.12V4.11L9.86475 3.89H10.2494L10.3551 3.5L10.4705 3.89H10.4801H10.8647L10.5474 4.11H10.5378L10.5474 4.12Z" fill="white"/>
<path d="M10.5474 7.11616L10.6821 7.5L10.3647 7.25758L10.0571 7.5L10.1821 7.11616L9.86475 6.88384H10.2494L10.3551 6.5L10.4705 6.88384H10.4801H10.8647L10.5474 7.11616H10.5378H10.5474Z" fill="white"/>
<path d="M10.5474 9.12L10.6821 9.5L10.3647 9.26L10.0571 9.5L10.1821 9.12V9.11L9.86475 8.89H10.2494L10.3551 8.5L10.4705 8.89H10.4801H10.8647L10.5474 9.11H10.5378L10.5474 9.12Z" fill="white"/>
<path d="M10.5474 12.11L10.6821 12.5L10.3647 12.25L10.0571 12.5L10.1821 12.11L9.86475 11.89H10.2494L10.3551 11.5L10.4705 11.89H10.4801H10.8647L10.5474 12.11H10.5378H10.5474Z" fill="white"/>
<path d="M10.5474 2.11616L10.6821 2.5L10.3647 2.26768V2.25758V2.26768L10.0571 2.5L10.1821 2.11616L9.86475 1.88384H10.2494L10.3551 1.5L10.4705 1.88384V1.89394L10.4801 1.88384H10.8647L10.5474 2.11616H10.5378H10.5474Z" fill="white"/>
<path d="M7.54744 4.12L7.68205 4.5L7.36475 4.26L7.05705 4.5L7.18205 4.12L7.19167 4.11H7.18205L6.86475 3.89H7.24936L7.35513 3.5L7.48013 3.89H7.86475L7.54744 4.11V4.12Z" fill="white"/>
<path d="M7.54744 7.11616L7.68205 7.5L7.36475 7.25758L7.05705 7.5L7.18205 7.11616H7.19167H7.18205L6.86475 6.88384H7.24936L7.35513 6.5L7.48013 6.88384H7.86475L7.54744 7.11616Z" fill="white"/>
<path d="M7.54744 9.12L7.68205 9.5L7.36475 9.26L7.05705 9.5L7.18205 9.12L7.19167 9.11H7.18205L6.86475 8.89H7.24936L7.35513 8.5L7.48013 8.89H7.86475L7.54744 9.11V9.12Z" fill="white"/>
<path d="M7.54744 12.11L7.68205 12.5L7.36475 12.25L7.05705 12.5L7.18205 12.11H7.19167H7.18205L6.86475 11.89H7.24936L7.35513 11.5L7.48013 11.89H7.86475L7.54744 12.11Z" fill="white"/>
<path d="M7.54744 2.11616L7.68205 2.5L7.36475 2.26768V2.25758V2.26768L7.05705 2.5L7.18205 2.11616H7.19167H7.18205L6.86475 1.88384H7.24936L7.35513 1.5L7.48013 1.88384V1.89394V1.88384H7.86475L7.54744 2.11616Z" fill="white"/>
<path d="M5.54744 4.12L5.67244 4.5L5.36475 4.26L5.04744 4.5L5.18205 4.12V4.11L4.86475 3.89H5.24936L5.35513 3.5L5.47052 3.89H5.86475L5.53782 4.11L5.54744 4.12Z" fill="white"/>
<path d="M5.54744 7.11616L5.67244 7.5L5.36475 7.25758L5.04744 7.5L5.18205 7.11616L4.86475 6.88384H5.24936L5.35513 6.5L5.47052 6.88384H5.86475L5.53782 7.11616H5.54744Z" fill="white"/>
<path d="M5.54744 9.12L5.67244 9.5L5.36475 9.26L5.04744 9.5L5.18205 9.12V9.11L4.86475 8.89H5.24936L5.35513 8.5L5.47052 8.89H5.86475L5.53782 9.11L5.54744 9.12Z" fill="white"/>
<path d="M5.54744 12.11L5.67244 12.5L5.36475 12.25L5.04744 12.5L5.18205 12.11L4.86475 11.89H5.24936L5.35513 11.5L5.47052 11.89H5.86475L5.53782 12.11H5.54744Z" fill="white"/>
<path d="M5.54744 2.11616L5.67244 2.5L5.36475 2.26768V2.25758V2.26768L5.04744 2.5L5.18205 2.11616L4.86475 1.88384H5.24936L5.35513 1.5L5.47052 1.88384V1.89394V1.88384H5.86475L5.53782 2.11616H5.54744Z" fill="white"/>
<path d="M2.54744 4.12L2.67244 4.5L2.36475 4.26L2.05705 4.5L2.18205 4.12L2.19167 4.11H2.18205L1.86475 3.89H2.24936L2.35513 3.5L2.47052 3.89H2.86475L2.54744 4.11V4.12Z" fill="white"/>
<path d="M2.54744 7.11616L2.67244 7.5L2.36475 7.25758L2.05705 7.5L2.18205 7.11616H2.19167H2.18205L1.86475 6.88384H2.24936L2.35513 6.5L2.47052 6.88384H2.86475L2.54744 7.11616Z" fill="white"/>
<path d="M2.54744 9.12L2.67244 9.5L2.36475 9.26L2.05705 9.5L2.18205 9.12L2.19167 9.11H2.18205L1.86475 8.89H2.24936L2.35513 8.5L2.47052 8.89H2.86475L2.54744 9.11V9.12Z" fill="white"/>
<path d="M2.54744 12.11L2.67244 12.5L2.36475 12.25L2.05705 12.5L2.18205 12.11H2.19167H2.18205L1.86475 11.89H2.24936L2.35513 11.5L2.47052 11.89H2.86475L2.54744 12.11Z" fill="white"/>
<path d="M2.54744 2.11616L2.67244 2.5L2.36475 2.26768V2.25758V2.26768L2.05705 2.5L2.18205 2.11616H2.19167H2.18205L1.86475 1.88384H2.24936L2.35513 1.5L2.47052 1.88384V1.89394V1.88384H2.86475L2.54744 2.11616Z" fill="white"/>
</g>
</g>
<path d="M1.23568 4.16322C1.23568 2.34494 2.70969 0.870931 4.52797 0.870931H33.2015C35.0198 0.870931 36.4938 2.34494 36.4938 4.16322V22.8368C36.4938 24.6551 35.0198 26.1291 33.2015 26.1291H4.52797C2.70969 26.1291 1.23568 24.6551 1.23568 22.8368V4.16322Z" stroke="#FFAA1D" stroke-width="0.741863"/>
<defs>
<clipPath id="clip0_1_1202">
<path d="M0.864746 4.16322C0.864746 2.14008 2.50483 0.5 4.52797 0.5H33.2015C35.2247 0.5 36.8647 2.14008 36.8647 4.16322V22.8368C36.8647 24.8599 35.2247 26.5 33.2015 26.5H4.52797C2.50483 26.5 0.864746 24.8599 0.864746 22.8368V4.16322Z" fill="white"/>
</clipPath>
<clipPath id="clip1_1_1202">
<rect width="41" height="27" fill="white" transform="translate(0.864746 0.5)"/>
</clipPath>
</defs>
</svg>
